<?xml version="1.0" encoding="UTF-8" standalone="no"?>
<!-- Created with Inkscape (http://www.inkscape.org/) -->

<svg
   xmlns:dc="http://purl.org/dc/elements/1.1/"
   xmlns:cc="http://creativecommons.org/ns#"
   xmlns:rdf="http://www.w3.org/1999/02/22-rdf-syntax-ns#"
   xmlns:svg="http://www.w3.org/2000/svg"
   xmlns="http://www.w3.org/2000/svg"
   xmlns:sodipodi="http://sodipodi.sourceforge.net/DTD/sodipodi-0.dtd"
   xmlns:inkscape="http://www.inkscape.org/namespaces/inkscape"
   width="50mm"
   height="30mm"
   viewBox="0 0 50 30"
   version="1.1"
   id="svg13893"
   inkscape:version="0.92.1 r15371"
   sodipodi:docname="BioWordmark_Sized.svg">
  <defs
     id="defs13887" />
  <sodipodi:namedview
     id="base"
     pagecolor="#ffffff"
     bordercolor="#666666"
     borderopacity="1.0"
     inkscape:pageopacity="0.0"
     inkscape:pageshadow="2"
     inkscape:zoom="3.3256116"
     inkscape:cx="149.86082"
     inkscape:cy="30.506833"
     inkscape:document-units="mm"
     inkscape:current-layer="layer1"
     showgrid="false"
     inkscape:window-width="1920"
     inkscape:window-height="1025"
     inkscape:window-x="0"
     inkscape:window-y="31"
     inkscape:window-maximized="1" />
  <metadata
     id="metadata13890">
    <rdf:RDF>
      <cc:Work
         rdf:about="">
        <dc:format>image/svg+xml</dc:format>
        <dc:type
           rdf:resource="http://purl.org/dc/dcmitype/StillImage" />
        <dc:title></dc:title>
      </cc:Work>
    </rdf:RDF>
  </metadata>
  <g
     inkscape:label="Layer 1"
     inkscape:groupmode="layer"
     id="layer1"
     transform="translate(0,-267)">
    <g
       transform="matrix(0.26458333,0,0,0.26458333,-405.32511,207.16084)"
       id="g22773">
      <path
         d="m 1714.964,244.27602 c 1.7186,0 3.0933,1.38 3.0933,3.09334 0,1.71866 -1.3747,3.08933 -3.0933,3.08933 -1.7094,0 -3.0894,-1.37067 -3.0894,-3.08933 0,-1.71334 1.38,-3.09334 3.0894,-3.09334 m 0,-1.188 c -2.3547,0 -4.2814,1.92267 -4.2814,4.28134 0,2.35466 1.9267,4.276 4.2814,4.276 2.3533,0 4.276,-1.92134 4.276,-4.276 0,-2.35867 -1.9174,-4.28134 -4.276,-4.28134"
         style="fill:#0d86ea;fill-opacity:1;fill-rule:nonzero;stroke:none;stroke-width:1.33333325"
         id="path94"
         inkscape:connector-curvature="0" />
      <path
         d="m 1714.432,247.01069 h 0.4373 c 0.2813,0 0.4947,-0.0733 0.6413,-0.19867 0.14,-0.11866 0.2187,-0.28133 0.2187,-0.48933 0,-0.26 -0.079,-0.40533 -0.224,-0.516 -0.1413,-0.10933 -0.3693,-0.17067 -0.656,-0.17067 -0.2187,0 -0.328,0.0253 -0.4173,0.036 z m -0.7547,2.71333 c -0.079,-0.005 -0.1413,-0.0787 -0.1413,-0.156 v -4.448 c 0,-0.068 0.052,-0.14133 0.1253,-0.156 0.312,-0.0627 0.74,-0.1 1.1453,-0.1 0.6414,0 1.0894,0.13067 1.4067,0.412 0.2707,0.23467 0.4067,0.584 0.4067,0.97467 0,0.536 -0.2867,0.93733 -0.6827,1.16533 0.2507,0.19334 0.4067,0.50134 0.4947,0.876 0.1466,0.62934 0.2653,1.08267 0.3333,1.208 0.052,0.104 -0.02,0.224 -0.14,0.224 h -0.5987 c -0.063,0 -0.1146,-0.036 -0.1413,-0.088 -0.052,-0.084 -0.088,-0.22 -0.14,-0.40666 -0.052,-0.18267 -0.1093,-0.42267 -0.172,-0.708 -0.063,-0.29734 -0.1467,-0.47467 -0.256,-0.57867 -0.1093,-0.10933 -0.2493,-0.16133 -0.4893,-0.172 h -0.3907 v 1.79733 c 0,0.088 -0.073,0.156 -0.156,0.156 z"
         style="fill:#0d86ea;fill-opacity:1;fill-rule:nonzero;stroke:none;stroke-width:1.33333325"
         id="path92"
         inkscape:connector-curvature="0" />
      <g
         style="stroke-width:0.9568302"
         transform="matrix(1.0451175,0,0,1.0451175,-143.85834,-33.494727)"
         id="g22637">
        <g
           style="fill:#0d86ea;fill-opacity:1;stroke-width:0.9568302"
           transform="translate(-313.13838,23.18262)"
           id="g22702">
          <path
             inkscape:connector-curvature="0"
             id="path10198"
             style="fill:#0d86ea;fill-opacity:1;fill-rule:nonzero;stroke:none;stroke-width:0.11960379"
             d="m 1933.1665,243.39285 c 0.1754,0 0.3194,0.0616 0.4314,0.18444 0.1099,0.12245 0.1633,0.27137 0.1633,0.44768 v 4.38161 c 0,0.17915 -0.053,0.32844 -0.1633,0.45067 -0.1119,0.12246 -0.256,0.18444 -0.4314,0.18444 h -14.3422 c -0.424,0 -0.6323,-0.21354 -0.6323,-0.63496 v -21.97697 c 0,-0.41843 0.2083,-0.63205 0.6323,-0.63205 h 4.5816 c 0.4184,0 0.6294,0.21354 0.6294,0.63205 v 16.36864 c 0,0.17613 0.061,0.31748 0.1837,0.42932 0.1199,0.11225 0.2696,0.16516 0.4478,0.16516 h 8.4997" />
          <path
             inkscape:connector-curvature="0"
             id="path10200"
             style="fill:#0d86ea;fill-opacity:1;fill-rule:nonzero;stroke:none;stroke-width:0.11960379"
             d="m 1959.6423,225.982 c 0.1203,0.12208 0.1811,0.26872 0.1811,0.4478 v 18.22768 h -0.031 c 0,0.17612 -0.022,0.3651 -0.067,0.56507 -0.045,0.1973 -0.099,0.36284 -0.1651,0.49924 l -3.0538,3.05295 c -0.1544,0.085 -0.3496,0.15496 -0.5811,0.19729 -0.232,0.0457 -0.4376,0.0695 -0.6163,0.0695 h -10.5232 c -0.179,0 -0.3763,-0.0227 -0.5974,-0.0695 -0.2213,-0.0423 -0.4104,-0.11225 -0.5653,-0.19729 l -3.0538,-3.05295 c -0.088,-0.15798 -0.1571,-0.34431 -0.2,-0.56806 -0.045,-0.21921 -0.066,-0.41919 -0.066,-0.59736 V 226.4298 c 0,-0.17915 0.061,-0.3258 0.1835,-0.4478 0.1204,-0.12321 0.2699,-0.18444 0.4486,-0.18444 h 4.581 c 0.1761,0 0.3256,0.0612 0.4486,0.18444 0.1222,0.12208 0.1835,0.26872 0.1835,0.4478 v 16.3686 c 0,0.17613 0.059,0.32844 0.1816,0.44568 0.1204,0.12246 0.2718,0.18369 0.4481,0.18369 h 6.5737 c 0.176,0 0.3229,-0.0612 0.432,-0.18369 0.1094,-0.11754 0.1654,-0.26948 0.1654,-0.44568 v -16.3686 c 0,-0.17915 0.061,-0.3258 0.1816,-0.4478 0.1221,-0.12321 0.2718,-0.18444 0.4507,-0.18444 h 4.6136 c 0.1754,0 0.3277,0.0612 0.4477,0.18444" />
          <path
             inkscape:connector-curvature="0"
             id="path10202"
             style="fill:#0d86ea;fill-opacity:1;fill-rule:nonzero;stroke:none;stroke-width:0.11960379"
             d="m 1983.3637,243.39285 c 0.1761,0 0.3202,0.0616 0.4321,0.18444 0.112,0.12245 0.1653,0.27137 0.1653,0.44768 v 4.38161 c 0,0.17915 -0.053,0.32844 -0.1653,0.45067 -0.1119,0.12246 -0.256,0.18444 -0.4321,0.18444 h -14.3422 c -0.4214,0 -0.6296,-0.21354 -0.6296,-0.63496 v -21.97697 c 0,-0.41843 0.2082,-0.63205 0.6296,-0.63205 h 4.5816 c 0.4211,0 0.632,0.21354 0.632,0.63205 v 16.36864 c 0,0.17613 0.059,0.31748 0.181,0.42932 0.1229,0.11225 0.2697,0.16516 0.4486,0.16516 h 8.499" />
          <path
             inkscape:connector-curvature="0"
             id="path10204"
             style="fill:#0d86ea;fill-opacity:1;fill-rule:nonzero;stroke:none;stroke-width:0.11960379"
             d="m 2008.2346,230.61408 c 0,0.17612 -0.046,0.3651 -0.1364,0.5653 -0.087,0.19729 -0.1891,0.36246 -0.2956,0.4958 l -10.7929,12.15265 h 10.5928 c 0.1761,0 0.325,0.0586 0.4452,0.1818 0.1228,0.12208 0.187,0.27175 0.187,0.44768 v 3.94957 c 0,0.17915 -0.064,0.32844 -0.187,0.45071 -0.1202,0.12246 -0.269,0.18444 -0.4452,0.18444 h -16.5023 c -0.4185,0 -0.6322,-0.21354 -0.6322,-0.63496 v -4.14954 c 0,-0.17613 0.04,-0.37077 0.1174,-0.57903 0.077,-0.21014 0.1707,-0.38347 0.2827,-0.51386 l 11.0222,-12.15296 h -10.5901 c -0.1789,0 -0.3283,-0.0612 -0.4478,-0.18444 -0.1229,-0.12019 -0.1844,-0.2691 -0.1844,-0.44511 v -3.95218 c 0,-0.17915 0.062,-0.3258 0.1844,-0.4478 0.1194,-0.12321 0.269,-0.18444 0.4478,-0.18444 h 16.3023 c 0.1761,0 0.325,0.0612 0.4452,0.18444 0.1228,0.12208 0.187,0.26873 0.187,0.4478 v 4.18424" />
          <path
             inkscape:connector-curvature="0"
             id="path10206"
             style="fill:#0d86ea;fill-opacity:1;fill-rule:nonzero;stroke:none;stroke-width:0.11960379"
             d="m 2022.1099,243.96091 h 8.9312 v -4.51729 h -8.9312 z m 0,-8.96534 h 8.9312 v -4.14928 h -8.9312 z m 13.9764,-5.87789 c 0.067,0.15497 0.1284,0.34961 0.1816,0.5816 0.056,0.23206 0.085,0.43687 0.085,0.61315 v 3.6858 c 0,0.17801 -0.04,0.37341 -0.1175,0.5811 -0.077,0.21354 -0.1707,0.3843 -0.2826,0.51466 l -1.4269,1.82706 c -0.1118,0.13304 -0.1624,0.29896 -0.1488,0.4981 0.01,0.19994 0.069,0.35225 0.1837,0.46432 l 1.36,1.6617 c 0.1092,0.1304 0.2109,0.30388 0.299,0.5147 0.088,0.20787 0.1332,0.40294 0.1332,0.5811 v 3.9154 c 0,0.17802 -0.03,0.37815 -0.085,0.59736 -0.053,0.22375 -0.1148,0.41015 -0.1817,0.56806 l -3.053,3.05295 c -0.1578,0.085 -0.3496,0.15496 -0.5817,0.19729 -0.2342,0.0457 -0.4369,0.0695 -0.6131,0.0695 h -14.3771 c -0.4212,0 -0.6322,-0.21354 -0.6322,-0.63499 v -21.97689 c 0,-0.17877 0.062,-0.3258 0.1844,-0.4478 0.1228,-0.12284 0.2696,-0.18444 0.4478,-0.18444 h 14.3771 c 0.1761,0 0.3789,0.0302 0.6131,0.0824 0.2321,0.0559 0.424,0.11754 0.5817,0.18444 l 3.053,3.05329" />
          <path
             inkscape:connector-curvature="0"
             id="path10208"
             style="fill:#0d86ea;fill-opacity:1;fill-rule:nonzero;stroke:none;stroke-width:0.11960379"
             d="m 2050.5937,243.42781 h 7.8034 V 231.4455 h -7.8034 z m 13.4172,-14.31013 c 0.066,0.15497 0.1249,0.34394 0.1808,0.56508 0.056,0.22186 0.085,0.42217 0.085,0.59739 v 14.27622 c 0,0.17802 -0.03,0.37815 -0.085,0.59736 -0.056,0.22375 -0.1147,0.41019 -0.1808,0.5681 l -3.0564,3.05291 c -0.1544,0.0854 -0.3489,0.15496 -0.581,0.19729 -0.2294,0.0457 -0.4376,0.0695 -0.6138,0.0695 h -10.5259 c -0.1761,0 -0.3755,-0.0227 -0.5974,-0.0695 -0.2212,-0.0423 -0.4075,-0.11225 -0.5625,-0.19729 l -3.0558,-3.05291 c -0.085,-0.15798 -0.155,-0.34432 -0.198,-0.5681 -0.045,-0.21921 -0.066,-0.41915 -0.066,-0.59736 v -14.27622 c 0,-0.17537 0.021,-0.3753 0.066,-0.59739 0.043,-0.2211 0.1127,-0.41015 0.198,-0.56508 l 3.0558,-3.05325 c 0.155,-0.0665 0.3413,-0.12813 0.5625,-0.18444 0.2219,-0.0529 0.4212,-0.0824 0.5974,-0.0824 h 10.5259 c 0.1761,0 0.3844,0.0302 0.6138,0.0824 0.2321,0.0559 0.4267,0.11754 0.581,0.18444 l 3.0564,3.05325" />
          <path
             inkscape:connector-curvature="0"
             id="path10210"
             style="fill:#0d86ea;fill-opacity:1;fill-rule:nonzero;stroke:none;stroke-width:0.11960379"
             d="m 2088.7426,230.81401 c 0,0.17537 -0.061,0.3224 -0.1808,0.44538 -0.1257,0.12246 -0.2724,0.18633 -0.4479,0.18633 h -4.7154 c -0.1761,0 -0.325,0.054 -0.4506,0.16328 -0.1202,0.1096 -0.1808,0.25587 -0.1808,0.4323 v 16.36573 c 0,0.17877 -0.057,0.32807 -0.166,0.45064 -0.1118,0.12283 -0.256,0.18444 -0.4321,0.18444 h -4.613 c -0.1817,0 -0.3284,-0.0616 -0.4506,-0.18444 -0.1202,-0.12246 -0.1817,-0.27175 -0.1817,-0.45064 V 232.0413 c 0,-0.17613 -0.056,-0.32277 -0.1651,-0.4323 -0.1092,-0.10923 -0.256,-0.16328 -0.4294,-0.16328 h -4.7175 c -0.1761,0 -0.3257,-0.0635 -0.4486,-0.18633 -0.1195,-0.12321 -0.1808,-0.26986 -0.1808,-0.44538 v -4.38421 c 0,-0.4184 0.2076,-0.63205 0.6295,-0.63205 h 16.5023 c 0.1755,0 0.3223,0.0612 0.4479,0.18444 0.1201,0.12208 0.1808,0.26872 0.1808,0.44776 v 4.38421" />
          <path
             sodipodi:nodetypes="cccccccccccccccccccccccccc"
             inkscape:connector-curvature="0"
             id="path10222"
             d="m 1995.2049,259.65444 c -7.4695,9e-5 -13.5244,6.05587 -13.5234,13.52539 10e-4,7.46798 6.0554,13.52139 13.5234,13.52148 2.0094,-0.005 3.9924,-0.45836 5.8047,-1.32617 0,0.006 0,-0.006 0,0 6.7968,-2.98258 13.7998,-0.0603 15.6384,14.91408 10e-4,-0.002 0,-0.007 0,-0.01 1.9262,18.71619 17.6928,32.94509 36.5078,32.94727 20.271,10e-5 36.7041,-16.4322 36.7051,-36.70313 10e-4,-20.27246 -16.4326,-36.70713 -36.7051,-36.70704 -8.4545,0.008 -16.6471,2.93469 -23.1933,8.28516 0,-0.0101 0.015,-0.0349 0.019,-0.0449 -13.2249,10.33841 -19.2294,7.85382 -22.0488,0.57422 0,0.005 0,-0.005 0,0 -1.9145,-5.38596 -7.0164,-8.96899 -12.7325,-8.97656 z m 0,7.72851 c 3.2017,-3.5e-4 5.7972,2.5952 5.7969,5.79688 -7e-4,3.20091 -2.596,5.79527 -5.7969,5.79492 -3.2009,3.5e-4 -5.7961,-2.59401 -5.7969,-5.79492 -3e-4,-3.20167 2.5952,-5.79723 5.7969,-5.79688 z m 57.9551,4.02344 c 13.8711,3.4e-4 25.1151,11.24612 25.1133,25.11719 -4e-4,13.86954 -11.2438,25.11294 -25.1133,25.11328 -13.8695,-3.4e-4 -25.1129,-11.24374 -25.1133,-25.11328 0,-13.87107 11.2422,-25.11685 25.1133,-25.11719 z"
             style="opacity:1;fill:#0d86ea;fill-opacity:1;fill-rule:evenodd;stroke:none;stroke-width:1.91366065;stroke-linecap:square;stroke-linejoin:miter;stroke-miterlimit:4;stroke-dasharray:none;stroke-dashoffset:1.20110357;stroke-opacity:0;paint-order:normal" />
          <path
             style="opacity:1;fill:#0d86ea;fill-opacity:1;fill-rule:evenodd;stroke:none;stroke-width:9.04091644;stroke-linecap:butt;stroke-linejoin:miter;stroke-miterlimit:4;stroke-dasharray:none;stroke-dashoffset:1.20110357;stroke-opacity:0.34241243;paint-order:normal"
             d="m 1989.4101,289.54258 v 42.77148 h 11.5903 v -36.61992 c 0,-6.65745 -3.7676,-5.12939 -5.7962,-5.12927 -2.0317,-1.2e-4 -3.9771,-0.37304 -5.7941,-1.02229 z"
             id="path10224"
             inkscape:connector-curvature="0"
             sodipodi:nodetypes="cccccc" />
          <path
             style="opacity:1;fill:#0d86ea;fill-opacity:1;fill-rule:evenodd;stroke:none;stroke-width:1.91366029;stroke-linecap:square;stroke-linejoin:miter;stroke-miterlimit:4;stroke-dasharray:none;stroke-dashoffset:1.20110357;stroke-opacity:0;paint-order:normal"
             d="m 1930.1088,286.86271 v -15.47282 h 19.3244 c 0,0 7.7273,0.0189 7.7273,7.74546 0,7.72736 -7.7615,7.72736 -7.7615,7.72736 z m 33.8132,3.80541 c 0,0 4.8296,-3.31929 4.8296,-11.53277 0,-19.31841 -17.3731,-19.31841 -17.3731,-19.31841 h -21.2697 -3.8577 -7.7173 v 27.04577 11.53273 33.86076 h 7.7173 3.8577 23.1479 c 0,0 23.2222,0.45618 23.2222,-22.72589 0,-15.37845 -12.5569,-18.86219 -12.5569,-18.86219 z m -12.557,7.72732 c 0,0 11.5911,-0.45615 11.5911,11.13487 0,11.59102 -11.5911,11.15093 -11.5911,11.15093 h -21.2562 v -22.2858 z"
             id="path10226"
             inkscape:connector-curvature="0"
             sodipodi:nodetypes="ccczcccsccccccccccsccscccc" />
          <path
             id="circle10232"
             d="m 2070.1201,297.12499 a 11.591033,11.591033 0 0 1 -7.2048,14.72391 11.591033,11.591033 0 0 1 -14.724,-7.2048 11.591033,11.591033 0 0 1 7.2048,-14.72398 11.591033,11.591033 0 0 1 14.724,7.20487 z"
             style="opacity:1;fill:#0d86ea;fill-opacity:1;fill-rule:evenodd;stroke:none;stroke-width:7.23273182;stroke-linecap:butt;stroke-linejoin:miter;stroke-miterlimit:4;stroke-dasharray:none;stroke-dashoffset:1.20110357;stroke-opacity:0.34241243;paint-order:normal"
             inkscape:connector-curvature="0" />
          <path
             sodipodi:nodetypes="ccccccc"
             style="opacity:1;fill:#0d86ea;fill-opacity:1;fill-rule:evenodd;stroke:none;stroke-width:7.2327323;stroke-linecap:butt;stroke-linejoin:miter;stroke-miterlimit:4;stroke-dasharray:none;stroke-dashoffset:1.20110357;stroke-opacity:0.34241243;paint-order:normal"
             d="m 2040.3,287.42691 c -5.0448,1.73072 -7.7321,7.22257 -6.0031,12.2679 1.6052,4.68147 6.4892,7.39234 11.3112,6.27836 -0.05,-0.13228 -0.1113,-0.25701 -0.1574,-0.39137 -2.0275,-5.91288 0.043,-12.27228 4.6628,-15.9919 -2.6091,-2.49982 -6.3953,-3.3343 -9.8136,-2.16299 z"
             id="path10234"
             inkscape:connector-curvature="0" />
          <path
             style="opacity:1;fill:#0d86ea;fill-opacity:1;fill-rule:evenodd;stroke:none;stroke-width:7.2327323;stroke-linecap:butt;stroke-linejoin:miter;stroke-miterlimit:4;stroke-dasharray:none;stroke-dashoffset:1.20110357;stroke-opacity:0.34241243;paint-order:normal"
             d="m 2051.649,277.13363 a 7.7273549,7.7273549 0 0 0 -5.2125,7.2604 c 2.3386,0.58413 4.4825,1.83001 6.1492,3.59683 0.5989,-0.30803 1.2164,-0.59018 1.8714,-0.81479 2.364,-0.8106 4.8003,-0.96681 7.1124,-0.56863 a 7.7273549,7.7273549 0 0 0 -0.1033,-4.67154 7.7273549,7.7273549 0 0 0 -9.8172,-4.80227 z"
             id="path10236"
             inkscape:connector-curvature="0" />
        </g>
      </g>
    </g>
  </g>
</svg>
