<?xml version="1.0" encoding="UTF-8" standalone="no"?>
<!-- Created with Inkscape (http://www.inkscape.org/) -->

<svg
   xmlns:dc="http://purl.org/dc/elements/1.1/"
   xmlns:cc="http://creativecommons.org/ns#"
   xmlns:rdf="http://www.w3.org/1999/02/22-rdf-syntax-ns#"
   xmlns:svg="http://www.w3.org/2000/svg"
   xmlns="http://www.w3.org/2000/svg"
   xmlns:sodipodi="http://sodipodi.sourceforge.net/DTD/sodipodi-0.dtd"
   xmlns:inkscape="http://www.inkscape.org/namespaces/inkscape"
   width="3.5in"
   height="1.25in"
   viewBox="0 0 88.899999 31.75"
   version="1.1"
   id="svg8"
   inkscape:version="0.92.1 r15371"
   sodipodi:docname="FreshCertified_Outline.svg">
  <defs
     id="defs2" />
  <sodipodi:namedview
     id="base"
     pagecolor="#ffffff"
     bordercolor="#666666"
     borderopacity="1.0"
     inkscape:pageopacity="0.0"
     inkscape:pageshadow="2"
     inkscape:zoom="4.2776635"
     inkscape:cx="106.34281"
     inkscape:cy="82.671988"
     inkscape:document-units="in"
     inkscape:current-layer="g8443"
     showgrid="false"
     inkscape:window-width="1920"
     inkscape:window-height="1025"
     inkscape:window-x="0"
     inkscape:window-y="31"
     inkscape:window-maximized="1"
     units="in">
    <inkscape:grid
       type="xygrid"
       id="grid8421"
       units="mm"
       spacingx="0.99999999"
       spacingy="0.99999999" />
  </sodipodi:namedview>
  <metadata
     id="metadata5">
    <rdf:RDF>
      <cc:Work
         rdf:about="">
        <dc:format>image/svg+xml</dc:format>
        <dc:type
           rdf:resource="http://purl.org/dc/dcmitype/StillImage" />
        <dc:title />
      </cc:Work>
    </rdf:RDF>
  </metadata>
  <g
     inkscape:label="Layer 1"
     inkscape:groupmode="layer"
     id="layer1"
     transform="translate(0,-265.25)">
    <g
       id="g8443"
       transform="matrix(0.72623134,0,0,0.72623134,19.054478,66.731862)"
       style="stroke-width:1.37697172">
      <g
         aria-label="FRESH   Certified"
         style="font-style:normal;font-variant:normal;font-weight:300;font-stretch:normal;font-size:8.15556908px;line-height:125%;font-family:Titillium;-inkscape-font-specification:'Titillium, Light';font-variant-ligatures:normal;font-variant-caps:normal;font-variant-numeric:normal;font-feature-settings:normal;text-align:start;letter-spacing:0px;word-spacing:0px;writing-mode:lr-tb;text-anchor:start;fill:#0d86ea;fill-opacity:1;stroke:none;stroke-width:0.36432371px;stroke-linecap:butt;stroke-linejoin:miter;stroke-opacity:1"
         id="text8427">
        <path
           d="m 6.5516615,298.13705 h 0.9052681 v -2.12044 h 2.1286036 v -0.79109 H 7.4569296 v -1.88394 h 2.5608484 v -0.79109 H 6.5516615 Z"
           style="font-style:normal;font-variant:normal;font-weight:600;font-stretch:normal;font-family:Titillium;-inkscape-font-specification:'Titillium Semi-Bold';fill:#0d86ea;fill-opacity:1;stroke-width:0.36432371px"
           id="path8422" />
        <path
           d="m 13.086693,296.1471 0.807402,1.98995 h 0.994979 l -0.921579,-2.19384 c 0.595356,-0.27729 0.913424,-0.82372 0.913424,-1.61481 0,-1.23964 -0.660601,-1.77791 -1.892092,-1.77791 h -2.120448 v 5.58656 h 0.905268 v -1.98995 z m 0.864491,-1.81054 c 0,0.57904 -0.260978,1.0276 -0.946046,1.0276 h -1.231491 v -2.03074 h 1.21518 c 0.652445,0 0.962357,0.367 0.962357,1.00314 z"
           style="font-style:normal;font-variant:normal;font-weight:600;font-stretch:normal;font-family:Titillium;-inkscape-font-specification:'Titillium Semi-Bold';fill:#0d86ea;fill-opacity:1;stroke-width:0.36432371px"
           id="path8424" />
        <path
           d="M 15.901895,298.13705 H 19.4251 v -0.79924 h -2.617937 v -1.63112 h 2.128603 v -0.78293 h -2.128603 v -1.58218 H 19.4251 v -0.79109 h -3.523205 z"
           style="font-style:normal;font-variant:normal;font-weight:600;font-stretch:normal;font-family:Titillium;-inkscape-font-specification:'Titillium Semi-Bold';fill:#0d86ea;fill-opacity:1;stroke-width:0.36432371px"
           id="path8426" />
        <path
           d="m 23.73723,292.64836 c 0,0 -1.060224,-0.19574 -1.769759,-0.19574 -1.117313,0 -1.859469,0.46487 -1.859469,1.59034 0,0.97051 0.521956,1.33751 1.72898,1.64742 0.856335,0.20389 1.109158,0.367 1.109158,0.84003 0,0.5872 -0.318068,0.89711 -1.011291,0.89711 -0.579045,0 -1.680047,-0.1468 -1.680047,-0.1468 l -0.08971,0.72585 c 0,0 1.101001,0.2202 1.826847,0.2202 1.101002,0 1.867625,-0.53012 1.867625,-1.75345 0,-0.9542 -0.424089,-1.26411 -1.598491,-1.59034 -0.954202,-0.26098 -1.247802,-0.38331 -1.247802,-0.90527 0,-0.48117 0.350689,-0.72584 1.035757,-0.72584 0.473023,0 1.614803,0.13049 1.614803,0.13049 z"
           style="font-style:normal;font-variant:normal;font-weight:600;font-stretch:normal;font-family:Titillium;-inkscape-font-specification:'Titillium Semi-Bold';fill:#0d86ea;fill-opacity:1;stroke-width:0.36432371px"
           id="path8428" />
        <path
           d="m 28.157294,298.13705 h 0.913424 v -5.58656 h -0.913424 v 2.38143 h -2.414048 v -2.38143 h -0.905269 v 5.58656 h 0.905269 v -2.41404 h 2.414048 z"
           style="font-style:normal;font-variant:normal;font-weight:600;font-stretch:normal;font-family:Titillium;-inkscape-font-specification:'Titillium Semi-Bold';fill:#0d86ea;fill-opacity:1;stroke-width:0.36432371px"
           id="path8430" />
        <path
           d="m 39.182731,297.50908 c -0.391468,0.0734 -0.99498,0.1468 -1.451692,0.1468 -1.28858,0 -1.492469,-0.75032 -1.492469,-2.32434 0,-1.60665 0.220201,-2.35696 1.476158,-2.35696 0.440401,0 1.101002,0.0815 1.468003,0.1468 l 0.02447,-0.53011 c -0.358845,-0.0734 -0.978668,-0.17943 -1.557713,-0.17943 -1.696359,0 -2.063359,1.0113 -2.063359,2.9197 0,1.85947 0.375156,2.88707 2.063359,2.88707 0.538267,0 1.15809,-0.0897 1.557713,-0.17127 z"
           style="font-style:normal;font-variant:normal;font-weight:normal;font-stretch:normal;font-family:Titillium;-inkscape-font-specification:Titillium;stroke-width:0.36432371px;fill:#0d86ea;fill-opacity:1"
           id="path8432" />
        <path
           d="m 41.565433,297.68034 c -0.799246,0 -1.068379,-0.45671 -1.068379,-1.32936 h 2.691337 l 0.03262,-0.46486 c 0,-1.33752 -0.554579,-1.90841 -1.63927,-1.90841 -1.035757,0 -1.704514,0.59536 -1.704514,2.14492 0,1.38645 0.399623,2.09598 1.614803,2.09598 0.660601,0 1.590336,-0.13049 1.590336,-0.13049 l -0.01631,-0.48118 c 0,0 -0.888957,0.0734 -1.500625,0.0734 z m -1.076535,-1.81869 c 0.0082,-0.98682 0.399623,-1.37013 1.092846,-1.37013 0.71769,0 1.027602,0.35884 1.027602,1.37013 z"
           style="font-style:normal;font-variant:normal;font-weight:normal;font-stretch:normal;font-family:Titillium;-inkscape-font-specification:Titillium;stroke-width:0.36432371px;fill:#0d86ea;fill-opacity:1"
           id="path8434" />
        <path
           d="m 44.182221,298.13705 h 0.611668 v -2.99309 c 0,0 0.71769,-0.39962 1.484314,-0.55458 v -0.61982 c -0.782935,0.15495 -1.49247,0.64429 -1.49247,0.64429 v -0.55458 h -0.603512 z"
           style="font-style:normal;font-variant:normal;font-weight:normal;font-stretch:normal;font-family:Titillium;-inkscape-font-specification:Titillium;stroke-width:0.36432371px;fill:#0d86ea;fill-opacity:1"
           id="path8436" />
        <path
           d="m 49.113922,294.58938 v -0.53011 h -1.296735 v -1.2478 h -0.603513 v 1.2478 h -0.579045 v 0.53011 h 0.579045 v 2.14492 c 0,1.1744 0.285445,1.49247 1.125469,1.49247 0.285445,0 0.831868,-0.0897 0.831868,-0.0897 l -0.04078,-0.50564 c 0,0 -0.49749,0.0489 -0.725845,0.0489 -0.530112,0 -0.587201,-0.25282 -0.587201,-1.14178 v -1.94918 z"
           style="font-style:normal;font-variant:normal;font-weight:normal;font-stretch:normal;font-family:Titillium;-inkscape-font-specification:Titillium;stroke-width:0.36432371px;fill:#0d86ea;fill-opacity:1"
           id="path8438" />
        <path
           d="m 49.868821,298.13705 h 0.611668 v -4.07778 h -0.611668 z m 0,-4.99936 h 0.611668 v -0.70953 h -0.611668 z"
           style="font-style:normal;font-variant:normal;font-weight:normal;font-stretch:normal;font-family:Titillium;-inkscape-font-specification:Titillium;stroke-width:0.36432371px;fill:#0d86ea;fill-opacity:1"
           id="path8440" />
        <path
           d="m 52.435787,294.58938 h 1.182557 v -0.53011 h -1.182557 v -0.35885 c 0,-0.75846 0.1468,-0.9542 0.603512,-0.9542 0.244667,0 0.701379,0.0163 0.701379,0.0163 l 0.0082,-0.50564 c 0,0 -0.546423,-0.0571 -0.823712,-0.0571 -0.799246,0 -1.101002,0.31807 -1.101002,1.49247 v 0.367 h -0.513801 v 0.53011 h 0.513801 v 3.54767 h 0.611668 z"
           style="font-style:normal;font-variant:normal;font-weight:normal;font-stretch:normal;font-family:Titillium;-inkscape-font-specification:Titillium;stroke-width:0.36432371px;fill:#0d86ea;fill-opacity:1"
           id="path8442" />
        <path
           d="m 54.344827,298.13705 h 0.611667 v -4.07778 h -0.611667 z m 0,-4.99936 h 0.611667 v -0.70953 h -0.611667 z"
           style="font-style:normal;font-variant:normal;font-weight:normal;font-stretch:normal;font-family:Titillium;-inkscape-font-specification:Titillium;stroke-width:0.36432371px;fill:#0d86ea;fill-opacity:1"
           id="path8444" />
        <path
           d="m 57.637638,297.68034 c -0.799246,0 -1.06838,-0.45671 -1.06838,-1.32936 h 2.691338 l 0.03262,-0.46486 c 0,-1.33752 -0.554578,-1.90841 -1.639269,-1.90841 -1.035757,0 -1.704514,0.59536 -1.704514,2.14492 0,1.38645 0.399623,2.09598 1.614803,2.09598 0.660601,0 1.590336,-0.13049 1.590336,-0.13049 l -0.01631,-0.48118 c 0,0 -0.888957,0.0734 -1.500624,0.0734 z m -1.076535,-1.81869 c 0.0082,-0.98682 0.399623,-1.37013 1.092846,-1.37013 0.71769,0 1.027602,0.35884 1.027602,1.37013 z"
           style="font-style:normal;font-variant:normal;font-weight:normal;font-stretch:normal;font-family:Titillium;-inkscape-font-specification:Titillium;stroke-width:0.36432371px;fill:#0d86ea;fill-opacity:1"
           id="path8446" />
        <path
           d="m 63.386168,292.28136 h -0.603512 v 1.80238 c -0.122333,-0.0245 -0.652445,-0.10603 -1.003135,-0.10603 -1.239646,0 -1.704514,0.71769 -1.704514,2.15307 0,1.76161 0.668757,2.08783 1.468003,2.08783 0.611667,0 1.239646,-0.35884 1.239646,-0.35884 v 0.27728 h 0.603512 z m -1.769758,5.39083 c -0.481179,0 -0.913424,-0.2202 -0.913424,-1.54141 0,-1.06022 0.252823,-1.62295 1.109157,-1.62295 0.334379,0 0.840024,0.0734 0.970513,0.0979 v 2.76474 c 0,0 -0.587201,0.30176 -1.166246,0.30176 z"
           style="font-style:normal;font-variant:normal;font-weight:normal;font-stretch:normal;font-family:Titillium;-inkscape-font-specification:Titillium;stroke-width:0.36432371px;fill:#0d86ea;fill-opacity:1"
           id="path8448" />
      </g>
    </g>
  </g>
</svg>
