<?xml version="1.0" encoding="UTF-8" standalone="no"?>
<!-- Created with Inkscape (http://www.inkscape.org/) -->

<svg
   xmlns:dc="http://purl.org/dc/elements/1.1/"
   xmlns:cc="http://creativecommons.org/ns#"
   xmlns:rdf="http://www.w3.org/1999/02/22-rdf-syntax-ns#"
   xmlns:svg="http://www.w3.org/2000/svg"
   xmlns="http://www.w3.org/2000/svg"
   xmlns:sodipodi="http://sodipodi.sourceforge.net/DTD/sodipodi-0.dtd"
   xmlns:inkscape="http://www.inkscape.org/namespaces/inkscape"
   width="80mm"
   height="82mm"
   viewBox="0 0 80 82"
   version="1.1"
   id="svg9293"
   inkscape:version="0.92.1 r15371"
   sodipodi:docname="LulzBot_Sized.svg">
  <defs
     id="defs9287" />
  <sodipodi:namedview
     id="base"
     pagecolor="#ffffff"
     bordercolor="#666666"
     borderopacity="1.0"
     inkscape:pageopacity="0.0"
     inkscape:pageshadow="2"
     inkscape:zoom="0.58789063"
     inkscape:cx="351.19306"
     inkscape:cy="595.45042"
     inkscape:document-units="mm"
     inkscape:current-layer="layer1"
     showgrid="false"
     inkscape:window-width="1920"
     inkscape:window-height="1025"
     inkscape:window-x="0"
     inkscape:window-y="31"
     inkscape:window-maximized="1" />
  <metadata
     id="metadata9290">
    <rdf:RDF>
      <cc:Work
         rdf:about="">
        <dc:format>image/svg+xml</dc:format>
        <dc:type
           rdf:resource="http://purl.org/dc/dcmitype/StillImage" />
        <dc:title></dc:title>
      </cc:Work>
    </rdf:RDF>
  </metadata>
  <g
     inkscape:label="Layer 1"
     inkscape:groupmode="layer"
     id="layer1"
     transform="translate(0,-215)">
    <g
       transform="matrix(0.26458333,0,0,0.26458333,-212.27497,126.57706)"
       id="g21583"
       style="fill:#0d86ea;fill-opacity:1">
      <path
         d="m 1096.708,637.72401 c -0.1147,-0.0107 -0.192,-0.104 -0.192,-0.21333 v -6.06267 c 0,-0.0987 0.068,-0.188 0.172,-0.208 0.4213,-0.084 1,-0.136 1.5573,-0.136 0.8693,0 1.4787,0.172 1.916,0.56267 0.3653,0.312 0.5573,0.79733 0.5573,1.32267 0,0.73466 -0.4013,1.28133 -0.9373,1.58933 0.344,0.26533 0.5573,0.676 0.6827,1.192 0.1973,0.86 0.3586,1.46933 0.448,1.64133 0.077,0.13467 -0.032,0.312 -0.188,0.312 h -0.8227 c -0.079,0 -0.156,-0.0467 -0.1933,-0.11466 -0.063,-0.13067 -0.1147,-0.30267 -0.1814,-0.55734 -0.073,-0.25466 -0.152,-0.57866 -0.24,-0.964 v -0.005 c -0.089,-0.4 -0.204,-0.65067 -0.3546,-0.79067 -0.1454,-0.14666 -0.344,-0.21866 -0.6667,-0.23466 h -0.536 v 2.45333 c 0,0.12 -0.093,0.21333 -0.208,0.21333 z m 1.0213,-3.69733 h 0.5987 c 0.3853,0 0.6773,-0.10533 0.8693,-0.26667 0.1933,-0.16133 0.3027,-0.38533 0.3027,-0.67733 0,-0.34267 -0.1094,-0.54667 -0.3067,-0.692 -0.1933,-0.15067 -0.496,-0.23467 -0.8907,-0.23467 -0.2973,0 -0.448,0.0267 -0.5733,0.0467 z"
         style="fill:#0d86ea;fill-opacity:1;fill-rule:nonzero;stroke:none;stroke-width:1.33333325"
         id="path1510"
         inkscape:connector-curvature="0" />
      <path
         d="m 1098.4586,628.67735 c -3.208,0 -5.8333,2.62533 -5.8333,5.83866 0,3.208 2.6253,5.82267 5.8333,5.82267 3.208,0 5.828,-2.61467 5.828,-5.82267 0,-3.20933 -2.6146,-5.83866 -5.828,-5.83866 m 0,1.61466 c 2.3387,0 4.2134,1.88534 4.2134,4.224 0,2.33334 -1.8747,4.21334 -4.2134,4.21334 -2.3333,0 -4.2186,-1.88 -4.2186,-4.21334 0,-2.33866 1.8853,-4.224 4.2186,-4.224"
         style="fill:#0d86ea;fill-opacity:1;fill-rule:nonzero;stroke:none;stroke-width:1.33333325"
         id="path1512"
         inkscape:connector-curvature="0" />
      <path
         d="M 950.56264,337.55202 806.07865,587.72935 H 1095.036 Z m 0,14.21867 34.09867,59.052 h -68.20267 z m -38.28666,66.292 h 76.568 l 55.44802,96.02533 -38.3494,66.40133 H 894.76531 l -38.14533,-66.05733 z m 136.12002,103.13066 34.2493,59.296 h -68.4893 z m -195.88002,0.348 34.04133,58.948 h -68.088 z"
         style="fill:#0d86ea;fill-opacity:1;fill-rule:nonzero;stroke:none;stroke-width:1.33333325"
         id="path1514"
         inkscape:connector-curvature="0" />
      <path
         d="m 831.44798,630.34401 c 0.29733,0 0.536,0.104 0.72933,0.312 0.18667,0.208 0.28134,0.45867 0.28134,0.76 v 7.42267 c 0,0.30133 -0.0947,0.55733 -0.28134,0.76533 -0.19333,0.208 -0.432,0.31334 -0.72933,0.31334 h -24.30267 c -0.71333,0 -1.06666,-0.36534 -1.06666,-1.07867 v -37.24 c 0,-0.708 0.35333,-1.068 1.06666,-1.068 h 7.76667 c 0.708,0 1.06133,0.36 1.06133,1.068 v 27.73467 c 0,0.30266 0.10534,0.54133 0.31334,0.72933 0.208,0.188 0.45866,0.28133 0.76,0.28133 h 14.40133"
         style="fill:#0d86ea;fill-opacity:1;fill-rule:nonzero;stroke:none;stroke-width:1.33333325"
         id="path1516"
         inkscape:connector-curvature="0" />
      <path
         d="m 876.30664,600.84401 c 0.204,0.20267 0.308,0.45334 0.308,0.75467 v 30.88533 h -0.052 c 0,0.30267 -0.0413,0.62 -0.11466,0.95867 -0.0787,0.33867 -0.16667,0.61467 -0.28134,0.844 l -5.17733,5.17733 c -0.26,0.14 -0.588,0.26 -0.97867,0.33334 -0.396,0.0773 -0.74533,0.12 -1.04666,0.12 h -17.828 c -0.30267,0 -0.64133,-0.0427 -1.01067,-0.12 -0.376,-0.0733 -0.69866,-0.19334 -0.964,-0.33334 l -5.172,-5.17733 c -0.15066,-0.26533 -0.26533,-0.584 -0.33866,-0.95867 -0.0773,-0.37466 -0.10934,-0.71333 -0.10934,-1.016 v -30.71333 c 0,-0.30133 0.104,-0.552 0.308,-0.75467 0.20267,-0.208 0.45734,-0.31333 0.76,-0.31333 h 7.76534 c 0.292,0 0.552,0.10533 0.76133,0.31333 0.20267,0.20267 0.30667,0.45334 0.30667,0.75467 v 27.73467 c 0,0.30266 0.0987,0.55733 0.30666,0.75466 0.204,0.21467 0.464,0.31867 0.76134,0.31867 h 11.13466 c 0.30267,0 0.548,-0.104 0.73467,-0.31867 0.18267,-0.19733 0.28133,-0.452 0.28133,-0.75466 v -27.73467 c 0,-0.30133 0.104,-0.552 0.308,-0.75467 0.20267,-0.208 0.45733,-0.31333 0.76533,-0.31333 h 7.812 c 0.29734,0 0.55734,0.10533 0.76,0.31333"
         style="fill:#0d86ea;fill-opacity:1;fill-rule:nonzero;stroke:none;stroke-width:1.33333325"
         id="path1518"
         inkscape:connector-curvature="0" />
      <path
         d="m 916.49998,630.34401 c 0.29733,0 0.54133,0.104 0.72933,0.312 0.192,0.208 0.28667,0.45867 0.28667,0.76 v 7.42267 c 0,0.30133 -0.0947,0.55733 -0.28667,0.76533 -0.188,0.208 -0.432,0.31334 -0.72933,0.31334 h -24.30267 c -0.71333,0 -1.06667,-0.36534 -1.06667,-1.07867 v -37.24 c 0,-0.708 0.35334,-1.068 1.06667,-1.068 h 7.76133 c 0.71867,0 1.072,0.36 1.072,1.068 v 27.73467 c 0,0.30266 0.1,0.54133 0.308,0.72933 0.208,0.188 0.45867,0.28133 0.76,0.28133 h 14.40134"
         style="fill:#0d86ea;fill-opacity:1;fill-rule:nonzero;stroke:none;stroke-width:1.33333325"
         id="path1520"
         inkscape:connector-curvature="0" />
      <path
         d="m 958.63998,608.69335 c 0,0.296 -0.0827,0.61333 -0.23334,0.952 -0.14666,0.33866 -0.31866,0.62 -0.5,0.844 l -18.28666,20.59333 h 17.948 c 0.296,0 0.54666,0.1 0.75466,0.308 0.208,0.20267 0.31734,0.45333 0.31734,0.75467 v 6.69333 c 0,0.30133 -0.10934,0.55733 -0.31734,0.76533 -0.208,0.208 -0.45866,0.31334 -0.75466,0.31334 h -27.964 c -0.708,0 -1.068,-0.36534 -1.068,-1.07867 v -7.032 c 0,-0.30133 0.068,-0.624 0.19866,-0.984 0.12934,-0.35333 0.292,-0.64533 0.47867,-0.864 l 18.67733,-20.59467 h -17.948 c -0.29733,0 -0.552,-0.104 -0.75466,-0.312 -0.20934,-0.20266 -0.31334,-0.45866 -0.31334,-0.75466 v -6.69867 c 0,-0.30133 0.104,-0.552 0.31334,-0.75467 0.20266,-0.208 0.45733,-0.31333 0.75466,-0.31333 h 27.62534 c 0.296,0 0.54666,0.10533 0.75466,0.31333 0.208,0.20267 0.31734,0.45334 0.31734,0.75467 v 7.09467"
         style="fill:#0d86ea;fill-opacity:1;fill-rule:nonzero;stroke:none;stroke-width:1.33333325"
         id="path1522"
         inkscape:connector-curvature="0" />
      <path
         d="m 982.15064,631.30668 h 15.13067 v -7.656 h -15.13067 z m 0,-15.192 h 15.13067 v -7.032 h -15.13067 z m 23.67736,-9.95867 c 0.1146,0.26 0.2186,0.59334 0.308,0.984 0.099,0.396 0.1453,0.74534 0.1453,1.03734 v 6.24933 c 0,0.30267 -0.068,0.63067 -0.1987,0.98533 -0.1293,0.35867 -0.2906,0.65067 -0.4786,0.86934 l -2.416,3.09333 c -0.1934,0.22933 -0.2814,0.51067 -0.2507,0.84933 0.016,0.33867 0.1147,0.59334 0.308,0.78667 l 2.3067,2.81733 c 0.1826,0.21334 0.3546,0.51067 0.5053,0.86534 0.1507,0.35333 0.224,0.68133 0.224,0.98933 v 6.62933 c 0,0.30267 -0.047,0.64134 -0.1453,1.016 -0.089,0.37467 -0.1934,0.69334 -0.308,0.95867 l -5.172,5.17733 c -0.2654,0.14 -0.5934,0.26 -0.98402,0.33334 -0.40134,0.0773 -0.74534,0.12 -1.036,0.12 h -24.36534 c -0.71333,0 -1.068,-0.36534 -1.068,-1.07867 v -37.24 c 0,-0.30133 0.104,-0.552 0.31334,-0.75467 0.20266,-0.208 0.45733,-0.31333 0.75466,-0.31333 h 24.36534 c 0.29066,0 0.63466,0.048 1.036,0.14133 0.39062,0.0933 0.71862,0.19734 0.98402,0.312 l 5.172,5.172"
         style="fill:#0d86ea;fill-opacity:1;fill-rule:nonzero;stroke:none;stroke-width:1.33333325"
         id="path1524"
         inkscape:connector-curvature="0" />
      <path
         d="m 1030.4066,630.40668 h 13.224 v -20.308 h -13.224 z m 22.7334,-24.25067 c 0.1146,0.26 0.2146,0.584 0.308,0.95867 0.099,0.37467 0.1453,0.71333 0.1453,1.01067 v 24.18666 c 0,0.30267 -0.047,0.64134 -0.1453,1.016 -0.093,0.37467 -0.1934,0.69334 -0.308,0.95867 l -5.1707,5.17733 c -0.2667,0.14 -0.6,0.26 -0.9907,0.33334 -0.3853,0.0773 -0.7386,0.12 -1.036,0.12 h -17.8386 c -0.2974,0 -0.6307,-0.0427 -1.0107,-0.12 -0.3747,-0.0733 -0.692,-0.19334 -0.9533,-0.33334 l -5.176,-5.17733 c -0.1467,-0.26533 -0.2614,-0.584 -0.3334,-0.95867 -0.079,-0.37466 -0.1146,-0.71333 -0.1146,-1.016 v -24.18666 c 0,-0.29734 0.036,-0.636 0.1146,-1.01067 0.072,-0.37467 0.1867,-0.69867 0.3334,-0.95867 l 5.176,-5.172 c 0.2613,-0.11466 0.5786,-0.21866 0.9533,-0.312 0.38,-0.0933 0.7133,-0.14133 1.0107,-0.14133 h 17.8386 c 0.2974,0 0.6507,0.048 1.036,0.14133 0.3907,0.0933 0.724,0.19734 0.9907,0.312 l 5.1707,5.172"
         style="fill:#0d86ea;fill-opacity:1;fill-rule:nonzero;stroke:none;stroke-width:1.33333325"
         id="path1526"
         inkscape:connector-curvature="0" />
      <path
         d="m 1095.0466,609.03068 c 0,0.29733 -0.104,0.548 -0.3066,0.756 -0.2134,0.20267 -0.4587,0.312 -0.7614,0.312 h -7.984 c -0.3013,0 -0.552,0.0947 -0.7653,0.28133 -0.2027,0.18267 -0.308,0.432 -0.308,0.72934 v 27.72933 c 0,0.30133 -0.099,0.55733 -0.2813,0.76533 -0.1867,0.208 -0.432,0.31334 -0.7334,0.31334 h -7.8133 c -0.312,0 -0.5573,-0.10534 -0.76,-0.31334 -0.208,-0.208 -0.312,-0.464 -0.312,-0.76533 v -27.72933 c 0,-0.29734 -0.095,-0.54667 -0.2813,-0.72934 -0.1827,-0.18666 -0.428,-0.28133 -0.724,-0.28133 h -7.9947 c -0.2973,0 -0.552,-0.10933 -0.7613,-0.312 -0.1974,-0.208 -0.3014,-0.45867 -0.3014,-0.756 v -7.432 c 0,-0.708 0.348,-1.068 1.0627,-1.068 h 27.9573 c 0.3027,0 0.548,0.10533 0.7614,0.31333 0.2026,0.20267 0.3066,0.45334 0.3066,0.75467 v 7.432"
         style="fill:#0d86ea;fill-opacity:1;fill-rule:nonzero;stroke:none;stroke-width:1.33333325"
         id="path1528"
         inkscape:connector-curvature="0" />
      <path
         d="m 950.53598,431.49468 c -0.484,0 -0.968,0.17734 -1.37467,0.52667 -0.40133,0.35333 -0.792,1.49467 -1.31733,2.79067 -0.532,1.29733 -1.204,2.75066 -2.17734,3.71866 -0.964,0.96934 -2.10933,1.53734 -3.30666,1.69867 -1.204,0.156 -2.45867,-0.104 -3.636,-0.792 -1.18267,-0.68267 -2.208,-1.91067 -3.068,-3.036 -0.85334,-1.12 -1.53067,-2.136 -2.016,-2.37067 -0.47334,-0.23866 -0.98934,-0.28533 -1.45734,-0.156 -0.46933,0.12534 -0.89066,0.41734 -1.19333,0.86534 -0.292,0.448 -0.36933,1.656 -0.54133,3.052 -0.172,1.396 -0.44267,2.97333 -1.12,4.16133 -0.688,1.18667 -1.64534,2.03067 -2.77067,2.49467 -1.10933,0.45866 -2.38533,0.53066 -3.70267,0.18266 -1.324,-0.36 -2.66133,-1.308 -3.79733,-2.19866 -1.14,-0.88534 -2.07333,-1.71334 -2.604,-1.81734 -0.52133,-0.10933 -1.032,-0.016 -1.45867,0.22934 -0.416,0.23466 -0.744,0.63466 -0.92133,1.14533 -0.16667,0.50533 0.0933,1.724 0.312,3.136 0.21867,1.42667 0.38533,3.04133 0.036,4.364 -0.35333,1.31733 -1.05733,2.38533 -2.02,3.12 -0.95867,0.73467 -2.172,1.14 -3.54133,1.136 -1.36534,0 -2.93334,-0.62 -4.29734,-1.23467 -1.36,-0.60933 -2.516,-1.21333 -3.052,-1.17733 -0.53733,0.0307 -1.00533,0.25067 -1.34933,0.59333 -0.33867,0.344 -0.55733,0.808 -0.59333,1.344 -0.0373,0.536 0.568,1.69334 1.17733,3.052 0.61467,1.36534 1.228,2.93734 1.228,4.30267 0,1.364 -0.39467,2.57733 -1.14,3.536 -0.74,0.95867 -1.80267,1.66667 -3.12,2.02133 -1.32267,0.344 -2.948,0.17734 -4.36933,-0.0467 -1.412,-0.21467 -2.62534,-0.48534 -3.14134,-0.308 -0.5,0.16666 -0.896,0.5 -1.14533,0.92133 -0.24,0.41733 -0.328,0.928 -0.224,1.45333 0.10933,0.52667 0.92667,1.46934 1.81733,2.604 0.88534,1.14134 1.828,2.47467 2.188,3.79734 0.35467,1.31733 0.276,2.59333 -0.188,3.71866 -0.45733,1.10934 -1.312,2.068 -2.49466,2.75067 -1.18667,0.68133 -2.76534,0.948 -4.16134,1.12 -1.396,0.16667 -2.60933,0.244 -3.052,0.536 -0.448,0.30133 -0.74533,0.72933 -0.86933,1.192 -0.13067,0.46933 -0.0787,0.98 0.156,1.464 0.24,0.47867 1.244,1.16133 2.364,2.016 1.12,0.85333 2.34933,1.88 3.03733,3.068 0.68134,1.18667 0.94267,2.43733 0.776,3.63467 -0.152,1.20266 -0.724,2.344 -1.69333,3.308 -0.968,0.968 -2.416,1.64533 -3.71867,2.172 -1.292,0.53066 -2.43733,0.91066 -2.792,1.31733 -0.35866,0.41067 -0.53066,0.89067 -0.53066,1.37467 -0.005,0.48933 0.172,0.97466 0.53066,1.36933 0.34934,0.40667 1.49467,0.792 2.792,1.33333 1.29734,0.52667 2.74534,1.204 3.708,2.16667 0.97467,0.96933 1.54267,2.10933 1.69867,3.31867 0.156,1.18666 -0.0987,2.44266 -0.78667,3.62933 -0.688,1.17733 -1.91733,2.20933 -3.04133,3.06267 -1.11467,0.84933 -2.12533,1.532 -2.36533,2.00533 -0.23467,0.48933 -0.28667,1 -0.16134,1.46933 0.13067,0.468 0.42267,0.89067 0.87067,1.192 0.44667,0.29734 1.656,0.37067 3.052,0.54667 1.39467,0.16667 2.97333,0.43733 4.156,1.12 1.18667,0.68267 2.036,1.64133 2.49467,2.756 0.46266,1.11867 0.54133,2.39467 0.18266,3.71867 -0.34933,1.32266 -1.30266,2.656 -2.188,3.79066 -0.89066,1.14134 -1.71866,2.07867 -1.82266,2.60534 -0.10934,0.52533 -0.0107,1.03066 0.22933,1.452 0.23867,0.42266 0.63467,0.756 1.14,0.92266 0.51067,0.17734 1.724,-0.084 3.14533,-0.30266 1.412,-0.21867 3.03734,-0.396 4.36,-0.0413 1.32267,0.35867 2.39067,1.05734 3.12534,2.016 0.73466,0.96267 1.14,2.172 1.13466,3.552 -0.005,1.35867 -0.624,2.932 -1.23333,4.296 -0.61067,1.36 -1.21467,2.516 -1.18267,3.04267 0.036,0.54133 0.244,1.01466 0.59867,1.348 0.33867,0.344 0.808,0.568 1.33867,0.6 0.536,0.036 1.688,-0.56267 3.05733,-1.17734 1.35867,-0.60933 2.92667,-1.23466 4.29733,-1.23466 1.36934,0 2.57734,0.41733 3.54134,1.14533 0.95333,0.73467 1.66133,1.808 2.016,3.12533 0.348,1.32267 0.17066,2.94267 -0.0427,4.36 -0.21867,1.42134 -0.484,2.62934 -0.312,3.14534 0.172,0.50533 0.5,0.896 0.92133,1.14533 0.41734,0.24 0.93334,0.328 1.45334,0.22933 0.52666,-0.104 1.464,-0.92666 2.59866,-1.81733 1.14667,-0.88533 2.48,-1.844 3.80267,-2.19733 1.32267,-0.344 2.59333,-0.272 3.71333,0.192 1.11467,0.464 2.07334,1.308 2.756,2.5 0.68134,1.18266 0.952,2.76533 1.11867,4.16133 0.172,1.396 0.24533,2.60933 0.54267,3.05733 0.296,0.44267 0.71866,0.74 1.18666,0.86 0.46934,0.124 0.984,0.0827 1.45867,-0.156 0.48933,-0.23466 1.16667,-1.25066 2.02133,-2.36533 0.85867,-1.12 1.88534,-2.34933 3.06667,-3.036 1.188,-0.68267 2.44267,-0.93733 3.636,-0.776 1.20267,0.15067 2.33867,0.72933 3.312,1.692 0.95867,0.96933 1.636,2.42267 2.16667,3.71867 0.52666,1.29733 0.92266,2.44266 1.32266,2.792 0.40134,0.36 0.88667,0.536 1.376,0.536 0.47867,0 0.96267,-0.176 1.36934,-0.53067 0.396,-0.34933 0.792,-1.5 1.32266,-2.79733 0.532,-1.296 1.204,-2.73867 2.172,-3.71334 0.964,-0.968 2.11467,-1.536 3.31334,-1.692 1.19733,-0.15733 2.452,0.0987 3.62933,0.78134 1.19333,0.69733 2.21867,1.92133 3.068,3.04133 0.86,1.12533 1.536,2.12933 2.01067,2.36933 0.484,0.24 0.99466,0.28134 1.46266,0.16134 0.47467,-0.12934 0.896,-0.42134 1.188,-0.864 0.30267,-0.448 0.38,-1.66134 0.54667,-3.05734 0.17733,-1.39066 0.44267,-2.97466 1.12533,-4.16133 0.68267,-1.18267 1.64534,-2.032 2.76,-2.49467 1.12,-0.45866 2.396,-0.53733 3.71334,-0.17733 1.324,0.34933 2.66266,1.30133 3.79733,2.192 1.136,0.89067 2.07333,1.71467 2.59867,1.81867 0.532,0.10933 1.032,0.0147 1.45333,-0.224 0.41733,-0.24534 0.75067,-0.64134 0.928,-1.14667 0.16533,-0.50533 -0.0947,-1.724 -0.308,-3.14533 -0.21867,-1.412 -0.39067,-3.036 -0.0413,-4.36 0.35333,-1.312 1.06266,-2.38534 2.02533,-3.11867 0.95333,-0.73466 2.172,-1.14666 3.54267,-1.136 1.364,-0.005 2.93733,0.61467 4.296,1.24 1.36,0.604 2.516,1.208 3.04666,1.176 0.53736,-0.036 1.00536,-0.25467 1.34936,-0.59867 0.3386,-0.33866 0.5626,-0.81199 0.5933,-1.34399 0.032,-0.536 -0.5613,-1.692 -1.176,-3.05734 -0.60932,-1.35866 -1.22399,-2.932 -1.22932,-4.296 0,-1.36533 0.40533,-2.584 1.14532,-3.54133 0.7347,-0.95867 1.8027,-1.66267 3.12,-2.01067 1.3227,-0.35466 2.9427,-0.17733 4.364,0.0413 1.4173,0.21333 2.6307,0.47866 3.1413,0.312 0.5054,-0.172 0.9067,-0.50534 1.1454,-0.92667 0.24,-0.42133 0.3333,-0.92667 0.2293,-1.45333 -0.1093,-0.52534 -0.932,-1.468 -1.8173,-2.604 -0.8854,-1.13467 -1.8334,-2.47867 -2.1934,-3.792 -0.348,-1.328 -0.2706,-2.59334 0.188,-3.71867 0.468,-1.11467 1.3067,-2.072 2.5054,-2.74933 1.1826,-0.688 2.76,-0.95334 4.156,-1.13067 1.3853,-0.16133 2.604,-0.24 3.052,-0.536 0.4426,-0.29733 0.7453,-0.724 0.8693,-1.188 0.1253,-0.468 0.073,-0.97867 -0.1613,-1.46267 -0.2387,-0.48533 -1.2494,-1.16266 -2.3587,-2.016 -1.12,-0.84933 -2.3547,-1.88533 -3.0413,-3.07333 -0.6827,-1.18267 -0.9334,-2.432 -0.776,-3.63067 0.156,-1.20266 0.728,-2.33733 1.6973,-3.30666 0.964,-0.964 2.416,-1.636 3.7133,-2.16667 1.2974,-0.53067 2.4374,-0.91733 2.792,-1.32267 0.3587,-0.40666 0.5307,-0.89066 0.5307,-1.37466 0,-0.48 -0.172,-0.97467 -0.5307,-1.37067 -0.3493,-0.40533 -1.4946,-0.792 -2.7866,-1.328 -1.2974,-0.53067 -2.7494,-1.19733 -3.7187,-2.172 -0.964,-0.968 -1.536,-2.10933 -1.6933,-3.30667 -0.156,-1.204 0.1053,-2.45333 0.7866,-3.636 0.688,-1.18666 1.9174,-2.208 3.0414,-3.06266 1.1253,-0.85334 2.1306,-1.536 2.3706,-2.01067 0.24,-0.48933 0.2814,-0.99467 0.156,-1.46267 -0.1253,-0.47466 -0.4213,-0.896 -0.8693,-1.19866 -0.4373,-0.29067 -1.652,-0.37467 -3.0467,-0.54134 -1.396,-0.172 -2.98,-0.43733 -4.1666,-1.12533 -1.1827,-0.68133 -2.0267,-1.64 -2.4907,-2.76 -0.468,-1.11467 -0.536,-2.39067 -0.1813,-3.71333 0.3533,-1.31734 1.3013,-2.656 2.192,-3.792 0.8906,-1.13467 1.7133,-2.07734 1.8133,-2.59867 0.1093,-0.52667 0.025,-1.03067 -0.224,-1.45867 -0.2453,-0.42133 -0.636,-0.74933 -1.1413,-0.92133 -0.5107,-0.172 -1.724,0.088 -3.14,0.30667 -1.4227,0.21866 -3.0427,0.38533 -4.3654,0.0373 -1.3173,-0.35467 -2.38,-1.06267 -3.1253,-2.02133 -0.72799,-0.964 -1.13466,-2.172 -1.13466,-3.536 0.005,-1.36534 0.63067,-2.93867 1.23996,-4.30267 0.6147,-1.35867 1.2187,-2.516 1.1814,-3.04667 -0.041,-0.54133 -0.2494,-1.00533 -0.5987,-1.34933 -0.344,-0.34933 -0.8067,-0.56267 -1.33866,-0.59867 -0.536,-0.036 -1.692,0.568 -3.05733,1.18267 -1.364,0.604 -2.93733,1.224 -4.296,1.22933 -1.36533,-0.005 -2.58933,-0.40666 -3.54267,-1.14133 -0.95733,-0.74 -1.66133,-1.80667 -2.01466,-3.12533 -0.35467,-1.328 -0.17734,-2.952 0.0413,-4.36934 0.21867,-1.41733 0.47867,-2.63066 0.312,-3.136 -0.17733,-0.50933 -0.50533,-0.9 -0.92133,-1.15066 -0.42267,-0.24 -0.928,-0.328 -1.45334,-0.22934 -0.52666,0.10934 -1.464,0.93334 -2.604,1.82267 -1.14666,0.88133 -2.48,1.83333 -3.79733,2.188 -1.328,0.35467 -2.604,0.276 -3.71333,-0.188 -1.12,-0.46267 -2.07334,-1.30667 -2.75467,-2.49467 -0.68267,-1.18666 -0.95333,-2.76533 -1.12533,-4.16666 -0.16667,-1.39067 -0.24,-2.60934 -0.54134,-3.052 -0.30266,-0.44267 -0.71866,-0.73334 -1.18266,-0.864 -0.46934,-0.12534 -0.98934,-0.084 -1.46934,0.156 -0.47866,0.23466 -1.16133,1.24533 -2.01466,2.36 -0.84934,1.124 -1.88534,2.35333 -3.068,3.04133 -1.188,0.68267 -2.44267,0.93733 -3.636,0.78667 -1.20267,-0.16667 -2.344,-0.74 -3.312,-1.70934 -0.95867,-0.968 -1.63067,-2.416 -2.16134,-3.71333 -0.532,-1.296 -0.92266,-2.44267 -1.32266,-2.79067 -0.40134,-0.35466 -0.88534,-0.52666 -1.376,-0.532 z m 0.016,9.084 c 1.92666,0 3.47466,1.552 3.47466,3.47334 0,1.91733 -1.548,3.464 -3.47466,3.464 -1.916,0 -3.46934,-1.54667 -3.46934,-3.464 0,-1.92134 1.55334,-3.47334 3.46934,-3.47334 z m -0.0573,10 c 13.83867,0 26.844,5.38 36.60934,15.13467 20.17728,20.188 20.17198,53.02667 -0.016,73.208 -9.75467,9.76667 -22.75467,15.136 -36.59334,15.136 -13.844,0 -26.83866,-5.36933 -36.59866,-15.136 -9.76534,-9.76 -15.136,-22.75467 -15.136,-36.59867 -0.005,-13.844 5.37066,-26.844 15.136,-36.604 9.75466,-9.76 22.76,-15.14 36.59866,-15.14 z m 0,1.71867 c -6.50533,0 -12.84933,1.23333 -18.83866,3.66667 -6.208,2.50933 -11.78134,6.20266 -16.54667,10.97333 -19.50533,19.51067 -19.50533,51.256 0,70.77067 4.76533,4.76533 10.33867,8.45333 16.54667,10.96933 5.98933,2.432 12.33333,3.66133 18.83866,3.66133 6.50534,0 12.844,-1.22933 18.83867,-3.66133 6.208,-2.51067 11.776,-6.204 16.54133,-10.98 4.77067,-4.76533 8.464,-10.33333 10.98,-16.54133 2.42134,-5.99467 3.65592,-12.33334 3.65592,-18.83334 0,-6.51066 -1.22925,-12.84933 -3.65592,-18.844 -2.51066,-6.208 -6.20933,-11.776 -10.97466,-16.54133 -4.76534,-4.76533 -10.33334,-8.464 -16.54134,-10.97333 -6,-2.43334 -12.33866,-3.66667 -18.844,-3.66667 z m 0.808,3.296 -0.084,5.776 c -0.49466,-0.005 -0.984,-0.005 -1.47333,0.005 l -0.10933,-5.77066 c 0.552,-0.02 1.10933,-0.016 1.66666,-0.0107 z m 4.984,0.35467 c 0.552,0.068 1.09867,0.14533 1.65067,0.23466 l -0.91067,5.69734 c -0.48,-0.0773 -0.964,-0.14534 -1.448,-0.20267 z m -11.64133,0.016 0.72933,5.72933 c -0.484,0.0613 -0.968,0.124 -1.45333,0.20267 l -0.916,-5.69867 c 0.54133,-0.088 1.09333,-0.17067 1.64,-0.23333 z m 18.18267,1.26533 c 0.536,0.14533 1.068,0.30667 1.59333,0.468 l -1.71333,5.516 c -0.45734,-0.14533 -0.92667,-0.28667 -1.396,-0.40667 z m -24.71334,0.0253 1.52534,5.568 c -0.47334,0.136 -0.94267,0.27067 -1.40534,0.412 l -1.71866,-5.51066 c 0.53066,-0.16667 1.06266,-0.31734 1.59866,-0.46934 z m -28.808,0.34934 c 0.89067,0 1.776,0.344 2.45334,1.02666 1.35466,1.35334 1.35466,3.552 0,4.91067 -0.68134,0.66667 -1.55734,1.016 -2.45334,1.016 -0.89066,0 -1.78,-0.34933 -2.452,-1.016 -1.35466,-1.364 -1.35466,-3.55733 0,-4.92133 0.676,-0.67734 1.56667,-1.016 2.452,-1.016 z m 82.49067,0.032 c 0.89067,-0.005 1.776,0.33333 2.45333,1.00933 1.348,1.35467 1.364,3.552 0,4.91733 -0.672,0.66667 -1.56266,1.016 -2.45333,1.016 -0.88,0 -1.776,-0.34933 -2.45333,-1.016 -1.34934,-1.36 -1.34934,-3.552 0,-4.90133 0.67733,-0.68267 1.56266,-1.02533 2.45333,-1.02533 z m -22.68267,1.796 c 0.51067,0.21866 1.00534,0.448 1.516,0.69333 l -2.48,5.21333 c -0.44266,-0.208 -0.88533,-0.412 -1.33333,-0.60933 z m -37.28666,0.0373 2.292,5.30133 c -0.448,0.188 -0.896,0.396 -1.328,0.604 l -2.48534,-5.21333 c 0.50534,-0.24 1.01067,-0.47333 1.52134,-0.692 z m 43.19866,3.052 c 0.468,0.28533 0.932,0.588 1.4,0.89467 l -3.192,4.808 c -0.412,-0.27067 -0.82266,-0.536 -1.24,-0.792 z m -49.11466,0.0307 3.03066,4.92133 c -0.412,0.256 -0.828,0.516 -1.22933,0.78133 l -3.208,-4.79066 c 0.45867,-0.31867 0.92667,-0.61467 1.40667,-0.912 z m 24.588,2.036 c 10.09333,0 19.568,3.91733 26.69333,11.03733 7.11867,7.12 11.04133,16.59333 11.04133,26.69733 0,10.09334 -3.932,19.57334 -11.04666,26.69334 -7.12,7.11466 -16.6,11.036 -26.69334,11.036 -10.09333,0 -19.57333,-3.92134 -26.692,-11.036 -7.12,-7.12 -11.04266,-16.6 -11.04266,-26.69334 0,-10.09866 3.91733,-19.57333 11.04266,-26.692 7.11867,-7.12 16.59867,-11.04266 26.69734,-11.04266 z m -0.005,1.71866 c -9.63066,0 -18.68266,3.74 -25.47866,10.53734 -6.792,6.792 -10.532,15.844 -10.532,25.47866 0,9.63067 3.74,18.67734 10.53733,25.47467 6.796,6.79067 15.84267,10.536 25.47333,10.536 9.636,0 18.68267,-3.74 25.47467,-10.536 6.796,-6.792 10.536,-15.83867 10.536,-25.47467 0,-9.63466 -3.74,-18.68666 -10.536,-25.47866 -6.792,-6.79734 -15.83867,-10.53734 -25.47467,-10.53734 z m 29.964,0.12 c 0.448,0.38534 0.844,0.724 1.23467,1.07867 l -3.85467,4.29733 c -0.344,-0.308 -0.69333,-0.60533 -1.05733,-0.912 l 1.80267,-2.26 z m -59.95866,0.0373 3.708,4.42666 c -0.37467,0.30667 -0.744,0.63067 -1.10934,0.95867 l -3.85866,-4.292 c 0.41066,-0.37467 0.828,-0.74 1.26,-1.09333 z m 64.74,4.56666 c 0.364,0.412 0.73333,0.83867 1.09333,1.26667 l -4.42667,3.70267 c -0.31333,-0.37467 -0.636,-0.74534 -0.95866,-1.104 z m -69.53734,0.0627 4.29734,3.86 c -0.312,0.35333 -0.62534,0.71333 -0.93734,1.07733 l -0.0933,0.10934 -1.62533,-1.504 -2.72934,-2.28134 0.0253,-0.0267 c 0.34933,-0.416 0.69866,-0.83334 1.06266,-1.23467 z m 38.412,1.76667 c 0.71334,-0.0107 1.38534,0.16666 1.984,0.44266 0.29734,0.13467 0.58934,0.296 0.84934,0.45734 0.29733,0.19866 0.54666,0.40133 0.78133,0.652 0.484,0.48933 0.844,1.156 0.948,1.87466 0.104,0.69734 -0.032,1.40667 -0.30267,2.01067 -0.276,0.60933 -0.67733,1.14 -1.192,1.56667 -0.50533,0.412 -1.136,0.74 -1.844,0.78666 l -0.0107,-0.0147 c -0.0253,0.0147 -0.0573,0.009 -0.0827,0.009 -0.26133,0.0213 -0.48533,-0.19733 -0.50533,-0.47867 -0.016,-0.28133 0.18666,-0.52133 0.44266,-0.53066 0.0253,-0.005 0.0573,-0.005 0.0573,-0.005 0.43733,-0.0467 0.864,-0.28666 1.224,-0.60933 0.348,-0.328 0.63466,-0.74533 0.80133,-1.188 0.172,-0.44267 0.224,-0.92133 0.14133,-1.33333 -0.0947,-0.432 -0.324,-0.80267 -0.64133,-1.11467 -0.16667,-0.14533 -0.37467,-0.292 -0.56267,-0.396 -0.23333,-0.13467 -0.448,-0.244 -0.68133,-0.33333 -0.44267,-0.17734 -0.912,-0.25467 -1.344,-0.224 -0.43733,0.032 -0.86,0.172 -1.24,0.412 -0.192,0.12 -0.38,0.26 -0.536,0.41066 -0.0893,0.0893 -0.16667,0.17734 -0.24,0.26134 -0.0413,0.0413 -0.0733,0.0933 -0.104,0.13466 l -0.052,0.068 c -0.005,0.005 -0.0213,0.0307 -0.0267,0.036 l -0.0147,0.0267 -0.0373,0.036 -0.0667,0.11467 -0.0947,0.15066 c -0.052,0.10534 -0.11467,0.20934 -0.16133,0.31334 -0.0933,0.21333 -0.17734,0.432 -0.244,0.656 -0.10934,0.44266 -0.15734,0.89066 -0.0893,1.30266 l 0.005,0.0827 0.0213,0.068 0.005,0.0573 0.009,0.0213 0.016,0.0667 c 0.0267,0.0787 0.052,0.14667 0.088,0.21867 0.0787,0.136 0.188,0.28133 0.32933,0.428 0.30133,0.30667 0.73333,0.61467 1.18133,0.92133 0.92267,0.62534 1.912,1.276 2.84934,1.99467 0.46933,0.35467 0.92666,0.74 1.36933,1.12533 l 0.33867,0.29734 0.32266,0.296 c 0.272,0.26133 0.52134,0.54666 0.73467,0.88 0.432,0.64666 0.656,1.42266 0.724,2.15733 0.0627,0.744 0.005,1.44267 -0.0987,2.104 -0.104,0.672 -0.26533,1.30667 -0.45333,1.92667 -0.192,0.60933 -0.42667,1.19733 -0.672,1.776 -0.22933,0.53066 -0.47333,1.052 -0.73467,1.55733 0,0 0,0.005 -0.004,0.016 -0.1,0.24933 -1.204,3.27067 1.49467,1.02533 0.052,-0.036 0.088,-0.0773 0.13467,-0.11466 0.0267,-0.0147 0.0467,-0.0413 0.0787,-0.0573 0.20267,-0.18133 0.39067,-0.348 0.57334,-0.536 0.74933,-0.69333 1.432,-1.448 2.02,-2.24 0.59333,-0.79066 1.05733,-1.64 1.344,-2.51466 0.0787,-0.224 0.13066,-0.43334 0.188,-0.672 l 0.17066,-0.81334 0.31867,-1.64 0.328,-1.656 c 0.11467,-0.55733 0.23467,-1.12533 0.416,-1.69866 0.16667,-0.57734 0.43333,-1.17734 0.78133,-1.69734 0.172,-0.256 0.36534,-0.48933 0.56267,-0.71866 0.208,-0.256 0.448,-0.46934 0.688,-0.66134 0.49467,-0.38533 1.02533,-0.67733 1.572,-0.90666 0.272,-0.12 0.548,-0.21334 0.82933,-0.308 0.28534,-0.088 0.552,-0.16134 0.87467,-0.22267 l 0.068,-0.016 h 0.0573 c 0.21334,0.0107 0.35867,0.0413 0.52534,0.068 0.16133,0.0307 0.32266,0.0667 0.48933,0.11333 0.31867,0.084 0.636,0.19867 0.93733,0.33867 0.60534,0.28667 1.15734,0.69333 1.6,1.21467 0.452,0.504 0.776,1.11333 0.984,1.73866 0.088,0.31867 0.16134,0.636 0.208,0.95334 0.0573,0.34933 0.0627,0.68266 0.0267,1.032 -0.0733,0.70266 -0.40667,1.38933 -0.912,1.88 -0.51067,0.48933 -1.13467,0.80666 -1.78667,0.97333 -0.64,0.17733 -1.312,0.224 -1.968,0.13067 -0.64133,-0.0987 -1.30266,-0.292 -1.86,-0.792 -0.02,-0.0107 -0.036,-0.0253 -0.0467,-0.0467 h -0.005 c -0.23466,-0.22933 -0.25466,-0.57867 -0.052,-0.776 0.19334,-0.20267 0.536,-0.172 0.76534,0.0413 l 0.005,0.005 0.005,0.016 c 0.308,0.296 0.80267,0.5 1.328,0.58266 0.516,0.0733 1.068,0.0413 1.59334,-0.0933 0.50533,-0.136 0.996,-0.38 1.34933,-0.724 0.35467,-0.35467 0.568,-0.812 0.60933,-1.30267 0.032,-0.244 0.016,-0.52 -0.02,-0.76533 -0.048,-0.27067 -0.10933,-0.536 -0.204,-0.80133 -0.18133,-0.50534 -0.44266,-0.98 -0.796,-1.36534 -0.35466,-0.38 -0.79733,-0.68266 -1.28666,-0.896 -0.24,-0.10933 -0.49467,-0.192 -0.756,-0.25466 -0.12934,-0.0213 -0.26534,-0.0627 -0.396,-0.0733 -0.0933,-0.02 -0.20267,-0.0253 -0.296,-0.0307 -0.208,0.0467 -0.44267,0.12533 -0.66134,0.20266 -0.24,0.0893 -0.48,0.188 -0.704,0.30267 -0.46266,0.21867 -0.89066,0.47333 -1.25466,0.78667 -0.188,0.156 -0.35467,0.33333 -0.484,0.5 -0.152,0.192 -0.292,0.4 -0.412,0.61333 -0.24534,0.41733 -0.40134,0.85467 -0.50534,1.344 -0.19733,0.98 -0.244,2.07867 -0.26533,3.172 -0.005,0.54667 0,1.09333 0,1.65067 l 0.0213,0.82933 c 0,0.312 -0.0213,0.64533 -0.0573,0.96267 -0.14667,1.28666 -0.56267,2.48933 -1.05733,3.60933 -0.50534,1.12533 -1.10934,2.172 -1.76667,3.17733 -0.66133,1.016 -1.364,1.96934 -2.11333,2.896 -0.0533,0.068 -0.11067,0.12534 -0.152,0.192 0.63066,-0.37466 1.28666,-0.72266 1.98,-1.04133 0.588,-0.26 1.192,-0.50533 1.84266,-0.708 0.65734,-0.19733 1.35467,-0.364 2.14667,-0.40667 0.776,-0.0467 1.68133,0.0427 2.54667,0.45334 0.42666,0.19866 0.812,0.47866 1.13066,0.792 0.32267,0.31733 0.58267,0.68266 0.76,1.01066 0.068,0.124 0.12534,0.25467 0.18267,0.38534 0.0667,0.12933 0.13467,0.24933 0.20267,0.38 l 0.412,0.74 0.79066,1.47866 c 0.5,0.98934 1.016,1.96934 1.57334,2.83867 0.276,0.43733 0.584,0.83333 0.90133,1.16133 0.16667,0.15067 0.33333,0.28134 0.49467,0.38534 0.0773,0.0413 0.16666,0.0933 0.24933,0.13066 0.10933,0.0307 0.19867,0.0627 0.308,0.0933 0.416,0.10933 0.87467,0.12533 1.33333,0.068 0.22934,-0.0413 0.45867,-0.0987 0.68667,-0.16134 0.11467,-0.0373 0.22933,-0.084 0.33333,-0.12533 l 0.16267,-0.0733 0.12933,-0.0573 0.0947,-0.052 -0.032,0.0267 c 0.016,-0.016 0.084,-0.0467 0.12533,-0.0787 0.052,-0.02 0.0987,-0.0573 0.15067,-0.088 0.0987,-0.0627 0.19867,-0.136 0.292,-0.21333 0.192,-0.14667 0.35467,-0.324 0.51067,-0.50533 0.296,-0.36534 0.51066,-0.78667 0.59866,-1.24 0.0933,-0.45867 0.0573,-0.95334 -0.0733,-1.432 -0.0573,-0.25067 -0.13467,-0.484 -0.24933,-0.73467 -0.0947,-0.21333 -0.21334,-0.44267 -0.35467,-0.63067 -0.28133,-0.38 -0.65067,-0.66666 -1.08267,-0.80666 -0.43866,-0.14667 -0.93333,-0.136 -1.396,-0.005 -0.46933,0.12534 -0.91733,0.36934 -1.28666,0.69734 -0.36534,0.308 -0.63067,0.704 -0.724,1.11466 -0.005,0.016 -0.005,0.0267 -0.0107,0.0427 -0.0253,0.0827 -0.068,0.16133 -0.13467,0.224 -0.204,0.20267 -0.532,0.20267 -0.73466,0 -0.156,-0.14667 -0.188,-0.39067 -0.0893,-0.584 0.17734,-0.636 0.57334,-1.15067 1.016,-1.552 0.484,-0.44267 1.05734,-0.76 1.688,-0.94267 0.624,-0.17733 1.312,-0.208 1.97867,-0.016 0.66667,0.19334 1.25067,0.62 1.66133,1.152 0.208,0.26 0.37467,0.53067 0.52134,0.83334 0.13466,0.28 0.244,0.57733 0.344,0.88 0.18666,0.60933 0.26,1.29066 0.16133,1.96266 -0.0893,0.672 -0.37067,1.31867 -0.76667,1.86 -0.19733,0.26534 -0.42666,0.51067 -0.66666,0.74 -0.124,0.10934 -0.24934,0.21334 -0.38534,0.312 -0.072,0.0467 -0.14533,0.0933 -0.20266,0.14534 -0.0733,0.0427 -0.12,0.0787 -0.208,0.12533 -0.0893,0.052 -0.14667,0.084 -0.21334,0.12533 -0.0733,0.0307 -0.14666,0.072 -0.21333,0.10934 -0.14667,0.068 -0.28667,0.13466 -0.43867,0.18666 -0.28533,0.11467 -0.59866,0.20934 -0.916,0.27734 -0.62,0.13466 -1.29733,0.16133 -1.95866,0.0413 -0.172,-0.032 -0.344,-0.0733 -0.5,-0.13067 -0.17734,-0.0467 -0.35467,-0.12 -0.50534,-0.19733 -0.33333,-0.152 -0.61466,-0.36 -0.86933,-0.55733 -0.516,-0.412 -0.92267,-0.87067 -1.31333,-1.31867 -0.38934,-0.44267 -0.744,-0.9 -1.088,-1.348 l -1.016,-1.344 -1,-1.31733 -0.49467,-0.64667 c -0.088,-0.10933 -0.16667,-0.21333 -0.26,-0.32267 -0.088,-0.0987 -0.19333,-0.19733 -0.28133,-0.29733 -0.25467,-0.24933 -0.43734,-0.296 -0.61467,-0.296 -0.17733,0 -0.41067,0.036 -0.724,0.14533 -0.63067,0.21867 -1.42133,0.708 -2.16667,1.29734 -0.74,0.588 -1.47866,1.292 -2.172,2.01466 -0.0467,0.0533 -0.0933,0.0947 -0.12933,0.14667 0.79067,0.70267 1.572,1.432 2.32267,2.244 0.45866,0.516 0.932,1.05733 1.344,1.67733 0.42133,0.61467 0.80133,1.328 1.072,2.152 0.25066,0.82267 0.344,1.79067 0.152,2.68134 -0.0947,0.44266 -0.25067,0.84933 -0.43867,1.22933 -0.052,0.0987 -0.072,0.15067 -0.11467,0.21333 l -0.104,0.18267 -0.192,0.36 c -0.52666,0.96267 -1.02133,1.92667 -1.42266,2.9 -0.41067,0.97467 -0.73867,1.964 -0.812,2.88533 -0.0413,0.448 -0.0213,0.88134 0.0987,1.28134 0.0267,0.1 0.0627,0.19333 0.10934,0.292 0.005,0.016 0.0267,0.0573 0.0467,0.088 0.016,0.0427 0.048,0.084 0.0733,0.12 0.0987,0.16133 0.24533,0.31333 0.40666,0.464 0.66134,0.59866 1.67734,1.04666 2.60934,1.30666 l 0.0307,0.0107 c 0.0427,0 0.104,0 0.14667,-0.0107 0.104,0 0.208,-0.004 0.31733,-0.0147 0.21334,-0.0373 0.416,-0.084 0.62534,-0.152 0.41066,-0.14 0.78666,-0.364 1.10933,-0.66667 0.328,-0.29067 0.604,-0.656 0.812,-1.07733 l 0.0787,-0.16667 h 0.005 v -0.005 l 0.004,-0.005 v -0.0107 l 0.0213,-0.0467 0.036,-0.088 c 0.0427,-0.1 0.0787,-0.204 0.12,-0.31333 0.0573,-0.20267 0.104,-0.42134 0.104,-0.624 0.0213,-0.412 -0.0827,-0.792 -0.31733,-1.11467 -0.23467,-0.328 -0.59333,-0.57333 -0.99467,-0.73467 -0.412,-0.15066 -0.85866,-0.23466 -1.29733,-0.208 -0.432,0.0253 -0.84267,0.0613 -1.244,0.208 -0.28667,0.15067 -0.636,0.0467 -0.80267,-0.24 -0.16133,-0.26533 -0.104,-0.61466 0.14667,-0.79733 l 0.0147,-0.02 c 0.052,-0.016 0.1,-0.0413 0.14666,-0.0627 0.552,-0.28133 1.13467,-0.38533 1.708,-0.38533 0.62,0 1.22934,0.12 1.80267,0.364 0.556,0.24 1.10933,0.62 1.5,1.15733 0.39467,0.536 0.59333,1.228 0.56133,1.86934 -0.004,0.32266 -0.0573,0.63466 -0.13466,0.92666 -0.032,0.15067 -0.0787,0.292 -0.136,0.448 l -0.0773,0.20267 -0.1,0.19867 c -0.244,0.52533 -0.57733,1.052 -0.99466,1.5 -0.42134,0.44266 -0.948,0.80666 -1.52534,1.06266 -0.28133,0.12934 -0.584,0.224 -0.896,0.30134 -0.14533,0.0267 -0.29733,0.0573 -0.45866,0.0733 -0.0827,0.0107 -0.16134,0.0213 -0.244,0.0267 l -0.13067,0.004 c -0.0413,0.005 -0.0787,0.005 -0.15067,0 h -0.0427 l -0.0613,-0.009 c -0.33866,-0.0733 -0.61466,-0.14133 -0.90666,-0.224 -0.29734,-0.0947 -0.57867,-0.19333 -0.86934,-0.30266 -0.57866,-0.23467 -1.14666,-0.51067 -1.69333,-0.916 -0.27067,-0.204 -0.536,-0.44267 -0.77067,-0.73467 -0.068,-0.0733 -0.12533,-0.15067 -0.17733,-0.224 -0.052,-0.0787 -0.104,-0.156 -0.172,-0.26 -0.088,-0.152 -0.16667,-0.31333 -0.24,-0.48 -0.296,-0.656 -0.42667,-1.35333 -0.45733,-2.02 -0.0467,-0.66667 0.0107,-1.30267 0.0933,-1.91733 0.088,-0.61467 0.19733,-1.208 0.344,-1.78667 0.276,-1.172 1.83867,-5.91067 -0.896,-6.48933 0,0 -0.005,-0.0107 -0.016,-0.0107 -0.328,-0.0987 -5.69733,-1.60933 -12.864,5.06267 -2.25067,2.068 1.516,5.33333 1.516,5.33333 0.812,0.808 1.63467,1.61467 2.43733,2.55733 0.4,0.47467 0.79067,0.97467 1.104,1.62 0.16134,0.32267 0.292,0.68267 0.35334,1.07334 0.0373,0.192 0.0427,0.39466 0.048,0.59866 -0.005,0.0467 -0.005,0.0987 -0.005,0.15067 l -0.0107,0.068 -0.005,0.052 -0.0107,0.14 -0.0213,0.12533 c -0.10933,0.708 -0.38,1.35467 -0.73866,1.912 -0.18267,0.276 -0.37467,0.54667 -0.59867,0.78667 -0.10533,0.12933 -0.21867,0.244 -0.344,0.35333 -0.052,0.0573 -0.12,0.10934 -0.18267,0.172 -0.0627,0.052 -0.12,0.104 -0.21333,0.16667 -0.0627,0.068 -0.104,0.0893 -0.172,0.13067 -0.0733,0.0627 -0.136,0.0987 -0.208,0.15066 -0.14133,0.0933 -0.292,0.172 -0.432,0.25067 -0.292,0.14533 -0.60533,0.27067 -0.93867,0.37467 -0.64533,0.172 -1.35333,0.18666 -2.01466,0.0467 -0.66134,-0.14533 -1.26667,-0.45866 -1.77067,-0.844 -0.25067,-0.192 -0.49067,-0.40666 -0.69867,-0.62533 -0.23466,-0.24933 -0.42666,-0.5 -0.604,-0.78133 -0.33866,-0.56667 -0.552,-1.26534 -0.48933,-1.94667 0.0413,-0.688 0.312,-1.324 0.70267,-1.84933 0.38,-0.52667 0.88533,-0.948 1.45866,-1.256 0.552,-0.296 1.192,-0.47867 1.88,-0.41067 0.14134,-0.005 0.292,0.0467 0.40667,0.156 0.208,0.21333 0.208,0.54133 0.0147,0.74 -0.13467,0.12933 -0.328,0.16667 -0.48934,0.12 -0.42666,-0.068 -0.91066,0.0467 -1.348,0.276 -0.43866,0.228 -0.824,0.56133 -1.11466,0.968 -0.28667,0.39067 -0.45867,0.86 -0.47467,1.312 -0.02,0.45867 0.12,0.90667 0.37467,1.308 0.13066,0.20267 0.30266,0.396 0.464,0.55733 0.20266,0.18267 0.40133,0.344 0.604,0.484 0.412,0.292 0.87066,0.48534 1.32266,0.55734 0.45867,0.0733 0.93334,0.016 1.376,-0.14 0.224,-0.0733 0.43734,-0.18267 0.64,-0.30267 0.0987,-0.0627 0.20267,-0.13467 0.29734,-0.208 0.0467,-0.036 0.088,-0.0733 0.14,-0.104 0.032,-0.0373 0.0947,-0.084 0.0987,-0.0987 l -0.02,0.0307 0.18267,-0.18267 0.11867,-0.124 c 0.084,-0.0893 0.16133,-0.18266 0.23466,-0.28133 0.15067,-0.19333 0.28134,-0.39067 0.39067,-0.60533 0.21867,-0.42134 0.33333,-0.86934 0.36,-1.296 l 0.009,-0.084 -0.004,-0.13467 v -0.0107 l -0.005,-0.0107 c 0.005,-0.0253 0.005,-0.0413 0,-0.0627 -0.005,-0.088 -0.0213,-0.172 -0.0467,-0.25467 -0.048,-0.16666 -0.13066,-0.344 -0.24,-0.52666 -0.22933,-0.35867 -0.55733,-0.73334 -0.94266,-1.09867 -0.76134,-0.724 -1.652,-1.416 -2.53734,-2.11467 l -1.35333,-1.05733 -0.67733,-0.53067 -0.432,-0.344 -0.11467,-0.0987 c -0.084,-0.0733 -0.16133,-0.152 -0.22933,-0.21334 -0.29734,-0.308 -0.55734,-0.67733 -0.76534,-1.07333 -0.19333,-0.39067 -0.33333,-0.82267 -0.41733,-1.24533 -0.15067,-0.844 -0.072,-1.63467 0.0573,-2.344 0.292,-1.43734 0.828,-2.63467 1.396,-3.77067 0.28667,-0.55733 0.584,-1.088 0.89067,-1.604 0.005,-0.005 0.005,-0.016 0.0107,-0.0253 l 0.005,-0.0107 c -0.005,0 0,-0.005 0,-0.005 0,0 -5,2.37466 -6.91733,2.636 0,0.004 -0.005,0 -0.005,0 -0.14533,0.0307 -0.29066,0.072 -0.448,0.0987 -0.91066,0.17734 -1.86933,0.21867 -2.80666,0.104 -0.22934,-0.0267 -0.45867,-0.068 -0.688,-0.11466 l -0.33867,-0.0733 -0.32267,-0.088 c -0.37466,-0.0987 -0.71866,-0.18266 -1.07733,-0.276 -0.71867,-0.16666 -1.43333,-0.31333 -2.104,-0.37466 -0.33867,-0.032 -0.652,-0.0573 -0.95333,-0.0267 -0.30267,0.0267 -0.57334,0.0573 -0.87067,0.15067 -0.29067,0.0893 -0.62,0.22933 -1.00933,0.38 -0.188,0.0733 -0.39067,0.152 -0.60534,0.22 l -0.104,0.0307 -0.0933,0.0413 c -0.0627,0.0267 -0.12,0.052 -0.18267,0.0893 -0.48933,0.23867 -0.93733,0.66667 -1.276,1.18133 -0.0773,0.136 -0.16133,0.27067 -0.22933,0.412 l -0.0467,0.088 c -0.016,0.0373 -0.005,0.005 -0.0253,0.052 -0.0267,0.0573 -0.048,0.14134 -0.0627,0.21467 -0.084,0.29067 -0.13066,0.61333 -0.15066,0.92667 -0.032,0.62 0.0987,1.192 0.39466,1.66133 0.292,0.47333 0.78667,0.83867 1.40134,1.09867 0.62533,0.26533 1.28133,0.41733 1.86,0.344 0.588,-0.0573 1.07733,-0.34934 1.432,-0.83867 0.67733,-0.964 0.70266,-2.552 -0.0467,-3.588 h -0.005 c -0.16134,-0.16133 -0.14134,-0.45867 0.0627,-0.672 0.19734,-0.19867 0.48934,-0.224 0.66667,-0.0627 v 0.005 c 0.0147,0.0107 0.0253,0.0253 0.036,0.036 0.59867,0.672 0.93733,1.516 1.02667,2.39066 0.0827,0.89067 -0.068,1.82267 -0.56267,2.65067 -0.24533,0.412 -0.57867,0.792 -1,1.068 -0.412,0.28667 -0.88,0.47467 -1.36533,0.55733 -0.96267,0.172 -1.896,-0.0107 -2.71334,-0.30133 -0.83333,-0.28133 -1.708,-0.808 -2.30133,-1.62 -0.29733,-0.40133 -0.52667,-0.86533 -0.66667,-1.328 -0.13066,-0.47467 -0.19866,-0.948 -0.204,-1.42267 -0.0107,-0.468 0.0373,-0.92133 0.13067,-1.38533 0.02,-0.11467 0.0573,-0.22933 0.0827,-0.34933 0.016,-0.052 0.0627,-0.17067 0.0787,-0.224 l 0.068,-0.16534 c 0.0933,-0.22933 0.19734,-0.43866 0.31734,-0.64666 0.448,-0.80134 1.10933,-1.55734 1.97866,-2.07334 0.10934,-0.0667 0.21867,-0.124 0.32934,-0.18133 l 0.18133,-0.0893 0.16133,-0.072 c 0.156,-0.068 0.31334,-0.13067 0.48,-0.21467 0.328,-0.16133 0.692,-0.35867 1.13467,-0.54133 0.43733,-0.172 0.928,-0.296 1.396,-0.36934 0.47467,-0.0733 0.932,-0.0933 1.38,-0.0933 0.88,0.0147 1.71333,0.11867 2.52667,0.23867 0.396,0.0627 0.812,0.136 1.192,0.21333 l 0.14133,0.016 0.104,0.016 0.24,0.036 c 0.156,0.016 0.312,0.0267 0.468,0.0373 0.92267,0.0253 1.83333,-0.16266 2.704,-0.54266 0,0 0.009,0 0.009,-0.005 0.005,-0.005 0.0107,0 0.016,-0.009 0.28667,-0.12 0.568,-0.26133 0.844,-0.428 0.55734,-0.31733 1.09334,-0.71867 1.58267,-1.16667 l 0.0107,-0.0107 c 0.54133,-0.42667 1.01066,-0.89467 1.24533,-1.33734 0.38,-0.69866 0.43733,-0.964 0.0467,-1.016 -0.328,-0.0413 -0.964,0.072 -1.98934,0.19734 -0.0893,0.005 -0.172,0.0213 -0.276,0.032 -0.83866,0.0987 -1.66133,0.19733 -2.48533,0.28666 -0.89467,0.072 -1.76533,0.20267 -2.728,0.276 -0.49067,0.02 -1,0.009 -1.532,-0.0947 -0.52,-0.10934 -1.068,-0.31734 -1.55733,-0.672 -0.47867,-0.34267 -0.89067,-0.79067 -1.16134,-1.28134 -0.13066,-0.23866 -0.24533,-0.48933 -0.33866,-0.744 -0.0933,-0.26533 -0.12934,-0.42666 -0.192,-0.61466 -0.204,-0.76 -0.48534,-1.484 -0.772,-2.19867 -0.296,-0.70267 -0.59867,-1.39467 -0.94667,-2.036 -0.344,-0.62533 -0.72933,-1.20267 -1.18267,-1.57333 -0.43733,-0.38 -1.036,-0.624 -1.65066,-0.67067 -0.60934,-0.0573 -1.28134,0.072 -1.88667,0.348 -0.072,0.032 -0.156,0.068 -0.20267,0.0987 -0.0573,0.0213 -0.11466,0.0627 -0.18266,0.11466 -0.124,0.0787 -0.244,0.18267 -0.36934,0.29734 -0.23466,0.21866 -0.432,0.46933 -0.58266,0.75066 -0.31867,0.54134 -0.43867,1.176 -0.36534,1.83734 0.036,0.33333 0.12534,0.65733 0.24,0.996 l 0.0467,0.11866 v 0.032 c 0.005,0.0107 0.016,0.016 0.016,0.016 l 0.02,0.0613 c 0.032,0.0573 0.0427,0.0733 0.0627,0.10933 0.005,0.0213 0.0267,0.0573 0.0413,0.0893 0.0787,0.12534 0.16667,0.25467 0.26667,0.35867 0.396,0.43867 1.02,0.65733 1.676,0.63067 0.65733,0 1.33333,-0.23467 1.876,-0.62534 0.536,-0.396 0.90133,-0.97866 0.97866,-1.604 0.005,-0.036 0.016,-0.0827 0.0213,-0.12 0.0987,-0.27066 0.39066,-0.4 0.66133,-0.30133 0.26533,0.0987 0.40667,0.37467 0.312,0.63467 -0.0467,0.428 -0.18667,0.84933 -0.40533,1.20933 -0.23467,0.41067 -0.548,0.76 -0.90134,1.04667 -0.71333,0.568 -1.57866,0.90133 -2.49466,0.948 -0.45867,0.02 -0.93734,-0.0267 -1.38534,-0.172 -0.464,-0.152 -0.896,-0.40667 -1.24533,-0.756 -0.17733,-0.16667 -0.33333,-0.364 -0.47333,-0.56267 -0.0213,-0.0573 -0.0533,-0.104 -0.0893,-0.16667 -0.0413,-0.056 -0.0627,-0.11866 -0.088,-0.156 l -0.032,-0.068 -0.0413,-0.0933 -0.0627,-0.15067 c -0.16666,-0.40133 -0.30133,-0.828 -0.37466,-1.28133 -0.14534,-0.90133 -0.0213,-1.896 0.41066,-2.74 0.21467,-0.42667 0.48534,-0.812 0.808,-1.14 0.156,-0.16667 0.33867,-0.328 0.52534,-0.47467 0.0947,-0.072 0.188,-0.14533 0.31333,-0.21866 0.11467,-0.072 0.208,-0.124 0.312,-0.18134 0.81333,-0.40133 1.704,-0.65733 2.672,-0.64133 0.97467,0.0213 1.92667,0.328 2.72933,0.912 0.80267,0.58267 1.34934,1.33333 1.808,2.03067 0.45734,0.71866 0.832,1.448 1.192,2.17733 0.36,0.72933 0.69334,1.448 1.088,2.15067 0.20934,0.396 0.32934,0.584 0.5,0.74533 0.16667,0.172 0.324,0.28133 0.50534,0.36933 0.16666,0.0987 0.36533,0.19334 0.59466,0.27067 0.23334,0.0733 0.52,0.12533 0.812,0.152 0.62534,0.0573 1.308,-0.10533 1.92667,-0.43867 0.39067,-0.208 0.76133,-0.452 1.11467,-0.728 0,0 0.70933,-0.43333 1.328,-1.33333 -1.23867,-2.308 -1.45734,-4.95867 -0.64,-7.22933 -0.568,-0.688 -1.12534,-1.40134 -1.636,-2.18267 -0.536,-0.82267 -1.036,-1.71867 -1.39067,-2.72933 -0.172,-0.516 -0.312,-1.04667 -0.39067,-1.62 -0.072,-0.56267 -0.072,-1.16134 0.0213,-1.74934 0.0573,-0.292 0.12533,-0.57866 0.21866,-0.86 0.0267,-0.068 0.052,-0.14 0.0787,-0.20266 l 0.02,-0.0467 c 0,-0.0107 0.005,-0.032 0.016,-0.0373 l 0.036,-0.072 0.13067,-0.28134 c 0.17733,-0.376 0.33333,-0.756 0.45866,-1.14133 0.24934,-0.75467 0.396,-1.552 0.41067,-2.21867 0.0267,-0.33866 -0.005,-0.62 -0.0613,-0.81733 -0.0267,-0.104 -0.0733,-0.20267 -0.152,-0.35467 -0.072,-0.13466 -0.18667,-0.29066 -0.30667,-0.5 -0.66133,-0.85866 -1.776,-1.49466 -2.87067,-1.59333 -1.13466,-0.104 -2.08266,0.38 -2.56666,1.45333 -0.068,0.12 -0.12,0.26 -0.172,0.40134 -0.0267,0.072 -0.0467,0.14533 -0.0627,0.21333 l -0.0787,0.27067 c -0.0773,0.25466 -0.124,0.56266 -0.124,0.81733 0,0.532 0.19734,0.93733 0.60934,1.24533 0.416,0.312 1.04133,0.47334 1.67066,0.47334 0.62534,0.0107 1.276,-0.14 1.776,-0.45734 l 0.005,0.004 c 0.16133,-0.104 0.40666,-0.0613 0.57866,0.1 0.188,0.19734 0.21334,0.47867 0.0467,0.65067 -0.005,0.005 -0.0107,0.0107 -0.02,0.016 -0.32933,0.296 -0.70933,0.5 -1.09467,0.66133 -0.396,0.14534 -0.80133,0.24934 -1.21333,0.296 -0.83333,0.0893 -1.71867,0 -2.552,-0.468 -0.40667,-0.23466 -0.78667,-0.58933 -1.04667,-1.02133 -0.26533,-0.43733 -0.412,-0.92133 -0.45333,-1.39067 -0.0413,-0.468 -0.0107,-0.896 0.068,-1.344 l 0.0627,-0.28533 c 0.0147,-0.1 0.0413,-0.204 0.072,-0.308 0.0573,-0.20267 0.12533,-0.42133 0.204,-0.62 0.31733,-0.81733 0.91066,-1.62933 1.72933,-2.14533 0.81733,-0.516 1.78533,-0.71334 2.68667,-0.68267 0.912,0.0413 1.76533,0.292 2.54666,0.688 0.78667,0.396 1.5,0.948 2.07334,1.656 l 0.005,0.016 0.0627,0.0773 c 0.0987,0.14134 0.224,0.30267 0.364,0.52667 0.156,0.21867 0.308,0.5 0.41733,0.792 0.22933,0.604 0.276,1.18133 0.26,1.70267 -0.0413,1.02533 -0.26533,1.90133 -0.43733,2.78666 -0.084,0.43734 -0.16667,0.87467 -0.24534,1.312 l -0.052,0.33334 -0.0107,0.0733 -0.004,0.0467 v 0.0253 c -0.0107,0.032 -0.0107,0.0627 -0.0213,0.1 -0.016,0.124 -0.0107,0.26 -0.005,0.39067 0.052,0.52 0.25467,1.05733 0.604,1.58266 0.36,0.53734 0.828,1.05734 1.36933,1.532 0.428,0.36934 0.88667,0.73334 1.36534,1.06134 3.14533,-2.08267 7.56266,-1.67067 10.73466,1.08933 0.54134,-0.344 1.05734,-0.79733 1.54134,-1.36533 0.016,-0.004 0.016,-0.009 0.0253,-0.0253 0.0213,-0.0267 0.0427,-0.052 0.0627,-0.084 0.324,-0.40533 0.62,-0.82266 0.88133,-1.24933 0.26,-0.42667 0.49467,-0.86933 0.65067,-1.308 0.14,-0.44267 0.21333,-0.88933 0.18133,-1.276 -0.0307,-0.39467 -0.14,-0.744 -0.33333,-1.052 -0.088,-0.15067 -0.20267,-0.296 -0.33334,-0.43733 l -0.29066,-0.296 -0.292,-0.28667 c -0.38,-0.38533 -0.792,-0.75067 -1.19734,-1.10933 -0.824,-0.724 -1.69333,-1.36534 -2.62,-2.07334 -0.464,-0.364 -0.95333,-0.73466 -1.428,-1.276 -0.23866,-0.27066 -0.46266,-0.588 -0.63466,-0.97333 -0.084,-0.18267 -0.14667,-0.38133 -0.18267,-0.584 -0.0107,-0.0413 -0.0253,-0.088 -0.0307,-0.14 l -0.0213,-0.12 -0.0213,-0.152 -0.0147,-0.124 c -0.0573,-0.71867 0.036,-1.428 0.25467,-2.07333 0.10933,-0.31734 0.24,-0.61467 0.40133,-0.916 0.0733,-0.14667 0.156,-0.28667 0.24933,-0.43334 0.048,-0.068 0.0947,-0.14 0.152,-0.20266 0.0413,-0.0733 0.088,-0.12 0.14,-0.19334 l 0.005,-0.0147 c 0,0 0.0107,0.005 0,-0.005 0.016,-0.005 0.016,-0.0107 0.0213,-0.0213 0.02,-0.0307 0.036,-0.0413 0.0467,-0.0627 l 0.088,-0.10933 c 0.0573,-0.072 0.12,-0.12533 0.172,-0.192 0.13066,-0.12 0.25066,-0.24 0.38,-0.35467 0.256,-0.224 0.53733,-0.41066 0.844,-0.588 0.604,-0.33333 1.312,-0.53733 2.01066,-0.54666 z m 13.50534,52.67066 h -0.0413 l 0.052,0.0107 c -0.005,-0.0107 -0.005,-0.0107 -0.0107,-0.0107 z m 21.71333,-49.23333 c 0.31733,0.45733 0.62,0.92667 0.912,1.40533 l -4.91733,3.032 c -0.25467,-0.41733 -0.52134,-0.82266 -0.792,-1.224 z m -77.71867,0.0573 4.80134,3.21334 c -0.27067,0.40533 -0.53067,0.812 -0.78534,1.224 l -4.91733,-3.04267 c 0.29733,-0.468 0.59333,-0.93733 0.90133,-1.39467 z m 81.02534,5.73334 c 0.24,0.51066 0.46933,1.01066 0.69333,1.52133 l -5.292,2.312 c -0.19733,-0.448 -0.40133,-0.89467 -0.61467,-1.33733 z m -84.32267,0.0573 5.21333,2.49467 c -0.21333,0.43866 -0.416,0.88133 -0.60933,1.32933 l -5.29067,-2.29733 c 0.21334,-0.516 0.448,-1.02134 0.68667,-1.52667 z m 86.76133,6.152 c 0.16667,0.53067 0.328,1.06667 0.47334,1.60933 l -5.57334,1.51467 c -0.12933,-0.468 -0.26,-0.93733 -0.40533,-1.39467 z m -89.19866,0.0627 5.51066,1.71333 c -0.14,0.45733 -0.27066,0.932 -0.40133,1.4 l -5.57333,-1.52 c 0.14666,-0.532 0.30266,-1.068 0.464,-1.59333 z m 90.74,6.42133 c 0.0827,0.552 0.16133,1.104 0.23466,1.656 l -5.72933,0.724 c -0.0627,-0.484 -0.13067,-0.964 -0.21333,-1.448 z m -92.26,0.0627 5.70266,0.91066 c -0.0733,0.48 -0.15066,0.964 -0.20266,1.44267 l -5.74,-0.708 c 0.0773,-0.552 0.156,-1.09867 0.24,-1.64533 z m -12.136,3.99466 c 1.916,0 3.46933,1.552 3.46933,3.468 0,1.912 -1.55733,3.46934 -3.46933,3.46934 h -0.0107 c -1.91067,-0.005 -3.464,-1.55734 -3.464,-3.47867 0,-1.90667 1.55333,-3.45867 3.47467,-3.45867 z m 116.63604,0.036 c 1.916,-0.0147 3.468,1.54667 3.468,3.45867 v 0.0107 c 0,1.91066 -1.552,3.45333 -3.468,3.468 -1.912,0 -3.4747,-1.55734 -3.4747,-3.468 0,-1.92267 1.552,-3.46934 3.4747,-3.46934 z m -11.64138,2.54134 c 0.0107,0.55733 0.0107,1.11466 0,1.672 l -5.77066,-0.0933 c 0.0107,-0.484 0.0107,-0.97333 0,-1.45333 z m -93.44266,0.0533 5.77066,0.104 c -0.005,0.49467 -0.005,0.97867 0,1.468 l -5.77066,0.104 c -0.0107,-0.56133 -0.0107,-1.11867 0,-1.676 z m 87.364,5.89467 5.73466,0.70933 c -0.0627,0.552 -0.14,1.09867 -0.224,1.64 l -5.71333,-0.896 c 0.084,-0.47867 0.15067,-0.95733 0.20267,-1.45333 z m -81.28,0.048 c 0.0573,0.47866 0.12933,0.96266 0.21333,1.44266 l -5.70933,0.92134 c -0.0827,-0.552 -0.16667,-1.09867 -0.23334,-1.65067 z m 80.16133,5.68666 5.57733,1.51067 c -0.14,0.536 -0.296,1.068 -0.46266,1.59333 l -5.516,-1.69733 c 0.14,-0.46933 0.276,-0.93733 0.40133,-1.40667 z m -79.032,0.0467 c 0.136,0.464 0.26533,0.94267 0.41733,1.40133 l -5.516,1.71867 c -0.16666,-0.536 -0.32266,-1.06267 -0.46933,-1.604 z m 77.10933,5.46933 5.29734,2.28667 c -0.21334,0.51067 -0.448,1.016 -0.688,1.52 l -5.208,-2.48933 c 0.208,-0.43734 0.40666,-0.87467 0.59866,-1.31734 z m -75.172,0.0467 c 0.19334,0.448 0.396,0.89067 0.604,1.33867 l -5.21333,2.47333 c -0.23867,-0.504 -0.468,-1.004 -0.68667,-1.52533 z m 72.47467,5.12 4.91067,3.036 c -0.29067,0.46933 -0.58267,0.93733 -0.896,1.396 l -4.80134,-3.20267 c 0.27067,-0.40133 0.53067,-0.81333 0.78667,-1.22933 z m -69.77067,0.0627 c 0.25467,0.416 0.51467,0.82266 0.78534,1.23466 l -4.80134,3.20267 c -0.312,-0.464 -0.60933,-0.93733 -0.90666,-1.41733 z m 3.41067,4.74 c 0.31333,0.37466 0.636,0.73866 0.95867,1.104 l -4.29734,3.85866 c -0.364,-0.416 -0.72933,-0.83866 -1.088,-1.25466 z m 62.88,0.0253 4.52133,3.604 -0.0467,0.052 c -0.37467,0.44267 -0.71334,0.83867 -1.052,1.21867 l -4.31334,-3.844 c 0.308,-0.33734 0.6,-0.676 0.89067,-1.03067 z m -3.97867,4.13067 3.86934,4.29066 c -0.41067,0.376 -0.83867,0.74 -1.25467,1.09467 l -3.71333,-4.41733 c 0.36933,-0.31734 0.74,-0.62934 1.09866,-0.968 z m -54.844,0.0467 c 0.36534,0.32267 0.73467,0.64534 1.10934,0.95867 l 0.12533,0.104 -3.72933,4.40533 -0.0733,-0.052 c -0.45733,-0.39066 -0.87466,-0.744 -1.28533,-1.11466 z m 50.24534,3.552 3.21333,4.79734 c -0.46933,0.30666 -0.93733,0.61866 -1.412,0.90533 l -3.036,-4.91067 c 0.41733,-0.25066 0.82267,-0.516 1.23467,-0.792 z m -45.52134,0.10934 c 0.412,0.276 0.81734,0.536 1.24,0.78666 l -3.032,4.92667 c -0.46266,-0.29733 -0.932,-0.59333 -1.4,-0.90133 z m 40.43734,2.792 2.49466,5.208 c -0.49466,0.24 -1.00533,0.46933 -1.51466,0.688 l -2.308,-5.292 c 0.44266,-0.19334 0.896,-0.396 1.328,-0.604 z m -35.35334,0.0933 c 0.43734,0.20267 0.88534,0.40667 1.33334,0.59867 l -2.292,5.30266 c -0.50534,-0.21866 -1.016,-0.448 -1.51067,-0.68266 z m -23.67733,0.76 c 0.88533,0.005 1.776,0.344 2.448,1.02667 0.02,0.02 0.0467,0.0307 0.0627,0.0573 0.02,0.016 0.036,0.0253 0.0573,0.052 1.348,1.35467 1.364,3.54133 0.005,4.90667 -0.68266,0.68133 -1.57333,1.02 -2.464,1.02 -0.86933,0 -1.76533,-0.33867 -2.448,-1.01067 -0.0107,-0.02 -0.0267,-0.036 -0.036,-0.0413 -0.032,-0.0253 -0.0573,-0.0627 -0.0947,-0.0827 h 0.016 c -1.364,-1.36533 -1.35467,-3.56267 0,-4.92267 0.67733,-0.67733 1.56266,-1.01066 2.45333,-1.00533 z m 82.59867,0.0267 c 0.89066,0 1.776,0.33866 2.45333,1.02 1.35467,1.34933 1.36933,3.55333 0.0107,4.90133 -0.68267,0.68267 -1.57334,1.016 -2.464,1.016 -0.87467,0 -1.76534,-0.33333 -2.43734,-1.016 -1.364,-1.348 -1.364,-3.552 -0.0107,-4.90133 0.67733,-0.676 1.56266,-1.02 2.448,-1.02 z m -29,1.26 1.72933,5.51066 c -0.53067,0.16667 -1.068,0.31734 -1.604,0.47334 l -1.532,-5.56667 c 0.47467,-0.136 0.93867,-0.276 1.40667,-0.41733 z m -24.47867,0.0733 c 0.46267,0.14533 0.92667,0.276 1.396,0.40133 l -1.49467,5.572 c -0.54266,-0.14 -1.07333,-0.296 -1.60533,-0.45733 z m 18.79067,1.276 0.928,5.69733 c -0.54667,0.0893 -1.09867,0.172 -1.64667,0.24 l -0.73867,-5.724 c 0.48934,-0.0627 0.97334,-0.13066 1.45734,-0.21333 z m -13.104,0.036 c 0.48,0.084 0.964,0.14667 1.448,0.204 l -0.708,5.73333 c -0.54134,-0.0667 -1.09867,-0.14533 -1.64,-0.23333 z m 7.276,0.49467 0.12,5.776 c -0.552,0.0107 -1.104,0.016 -1.66134,0.005 l 0.084,-5.77067 c 0.484,0.005 0.97334,0.005 1.45734,-0.0107 z m -0.708,13.95866 c 1.92266,-0.016 3.47466,1.53067 3.47866,3.45333 0,1.92134 -1.556,3.468 -3.468,3.484 -1.92133,0 -3.47466,-1.54666 -3.47866,-3.468 0,-1.92266 1.54666,-3.46933 3.468,-3.46933 z"
         style="fill:#0d86ea;fill-opacity:1;fill-rule:nonzero;stroke:none;stroke-width:1.33333325"
         id="path1530"
         inkscape:connector-curvature="0" />
      <path
         d="m 1048.3906,541.16135 17.276,29.912 H 1031.12 Z m 0,-7.244 -23.552,40.78 h 47.1094 z"
         style="fill:#0d86ea;fill-opacity:1;fill-rule:nonzero;stroke:none;stroke-width:1.33333325"
         id="path1532"
         inkscape:connector-curvature="0" />
      <path
         d="m 852.54131,541.16135 17.276,29.912 h -34.552 z m 0,-7.244 -23.54666,40.78 h 47.09866 z"
         style="fill:#0d86ea;fill-opacity:1;fill-rule:nonzero;stroke:none;stroke-width:1.33333325"
         id="path1534"
         inkscape:connector-curvature="0" />
      <path
         d="m 950.56264,371.04669 17.27067,29.91733 h -34.54667 z m 0,-7.244 -23.55733,40.78533 h 47.10933 z"
         style="fill:#0d86ea;fill-opacity:1;fill-rule:nonzero;stroke:none;stroke-width:1.33333325"
         id="path1536"
         inkscape:connector-curvature="0" />
    </g>
  </g>
</svg>
