<?xml version="1.0" encoding="UTF-8" standalone="no"?>
<svg
   xmlns:dc="http://purl.org/dc/elements/1.1/"
   xmlns:cc="http://creativecommons.org/ns#"
   xmlns:rdf="http://www.w3.org/1999/02/22-rdf-syntax-ns#"
   xmlns:svg="http://www.w3.org/2000/svg"
   xmlns="http://www.w3.org/2000/svg"
   version="1.1"
   id="svg4377"
   viewBox="0 0 111.00248 96.908537"
   height="27.349743mm"
   width="31.327366mm">
  <defs
     id="defs4379" />
  <metadata
     id="metadata4382">
    <rdf:RDF>
      <cc:Work
         rdf:about="">
        <dc:format>image/svg+xml</dc:format>
        <dc:type
           rdf:resource="http://purl.org/dc/dcmitype/StillImage" />
        <dc:title></dc:title>
      </cc:Work>
    </rdf:RDF>
  </metadata>
  <g
     transform="translate(-293.29647,-356.6613)"
     id="layer1">
    <g
       id="g4325"
       transform="translate(212.61983,-252.64)">
      <g
         transform="matrix(0.18508124,0,0,0.18508124,65.823517,554.51507)"
         id="g3774">
        <path
           style="fill:#000000;fill-opacity:1"
           id="sign_border"
           d="M 597.6,499.6 313.8,8 C 310.9,3 305.6,0 299.9,0 294.2,0 288.9,3.1 286,8 L 2.2,499.6 c -2.9,5 -2.9,11.1 0,16 2.9,5 8.2,8 13.9,8 h 567.6 c 5.7,0 11,-3.1 13.9,-8 2.9,-5 2.9,-11.1 0,-16 z"
           transform="translate(80.226893,296.01179)" />
        <path
           id="sign_bg"
           d="m 555.9,491.5 h -512 v 0 l 256,-443.3 z"
           style="fill:#ffffff;fill-opacity:1"
           transform="translate(80.226893,296.01179)" />
        <g
           style="fill:#484848;fill-opacity:1"
           id="g2173">
          <g
             id="g3134"
             style="fill:#484848;fill-opacity:1"
             transform="matrix(1.8951126,0,0,1.9509158,-715.42911,-386.30459)">
            <path
               id="rect2241"
               d="m 499.66782,583.30164 h 85.01474 v 5.95834 h -85.01474 z"
               style="fill:#000000;fill-opacity:1;stroke:none" />
            <path
               id="rect2239"
               d="m 507.83804,519.75708 h 70.61879 v 6.53199 h -70.61879 z"
               style="fill:#000000;fill-opacity:1;stroke:none" />
            <path
               id="path2326"
               style="fill:#000000;fill-opacity:1;fill-rule:evenodd;stroke:none"
               d="m 526.13835,504.36218 v -14 l 13,12 v -38 h 9 v 38 l 13,-12 v 14 l -17.49856,14 z" />
          </g>
          <path
             id="rect10870"
             style="fill:#000000;fill-opacity:1;stroke:#484848;stroke-width:1.37206626;stroke-miterlimit:4;stroke-dasharray:none;stroke-dashoffset:0;stroke-opacity:1"
             d="m 387.97157,621.86925 c -0.99939,0.19908 -2.12169,3.06111 -2.40734,4.77626 0.0987,4.97235 0.0195,4.93246 1.16215,7.60039 1.29588,2.61179 5.12852,4.66964 9.08982,7.18517 12.67246,8.04723 20.1719,6.89442 20.1719,6.8944 0.11609,0.0332 2.3037,0.55617 2.73938,0.6645 0.0432,1.27157 -0.17941,2.5054 -0.78861,3.69642 H 312.84574 c -5.31459,0 -9.58788,4.31755 -9.58788,9.63553 0,5.31802 4.2733,9.59402 9.58788,9.59402 h 86.95503 c 0.80426,1.94282 0.61235,3.89108 -0.58108,5.64841 H 297.69606 c -5.3146,0 -9.62941,4.27606 -9.62941,9.594 0,5.31802 4.31485,9.594 9.62941,9.594 h 92.22628 c 1.211,1.80563 2.03554,3.29566 2.32432,4.61013 h -86.2079 c -5.31461,0 -9.58788,4.27608 -9.58788,9.594 0,5.31802 4.27331,9.59406 9.58788,9.59406 h 96.41839 c 0.88988,1.23167 1.28132,2.57027 0.91314,4.02862 h -66.6171 c -4.68608,0 -8.46723,3.78358 -8.46723,8.47263 0,4.68905 3.78117,8.47261 8.46723,8.47263 h 77.74069 c 7.70139,2.373 16.50345,4.5453 24.69606,5.39926 8.30986,0 57.07763,-2.36053 63.7947,-3.15652 9.57046,-1.13403 30.34089,-9.01253 30.34089,-9.01253 V 657.67028 L 431.3868,628.30679 c -2.25384,-0.59349 -12.40823,-0.59515 -14.23652,-0.74759 -4.86864,-0.40599 -16.93877,-3.29426 -19.30029,-3.90406 -1.71585,-0.36195 -5.70959,-1.09983 -9.67089,-1.78589 -0.0652,-0.0113 -0.14088,-0.0133 -0.20753,0 z" />
        </g>
      </g>
    </g>
  </g>
</svg>
